<svg width="189" height="189" viewBox="0 0 189 189" fill="none" xmlns="http://www.w3.org/2000/svg">
<path d="M103.505 176.561H84.134H50.2363C37.2136 176.561 25.1176 169.829 18.261 158.764L9.68144 144.92C2.6642 133.596 6.87398 118.695 18.7811 112.711C29.5503 107.299 34.2079 94.4182 29.3884 83.3768L25.9577 75.5169C20.8867 63.8984 23.2184 50.3794 31.8888 41.1284L46.9382 25.0713C62.8554 8.0883 89.6817 7.65033 106.146 24.1047L124.929 42.8777C127.369 45.3161 131.162 45.767 134.106 43.9683C138.833 41.0808 144.95 44.1593 145.442 49.6735L147.773 75.7771C148.286 81.5202 150.887 86.8708 155.498 90.3358C164.594 97.1713 177.141 105.592 179.437 111.196C195.614 150.686 146.205 176.561 103.505 176.561Z" fill="#E7FFE9"/>
<path d="M18.3979 146.488C33.1157 153.789 39.2356 169.369 40.263 176.355H34.7454C22.3862 167.75 17.848 154.34 17.0456 147.417C16.9586 146.666 17.721 146.152 18.3979 146.488Z" fill="#06CB13"/>
<path d="M22.3569 124.382C38.8837 132.401 43.7359 162.057 44.0829 176.142H36.6554C19.508 151.392 18.9821 132.383 21.0514 124.954C21.2086 124.39 21.8301 124.126 22.3569 124.382Z" fill="white"/>
<path fill-rule="evenodd" clip-rule="evenodd" d="M21.5452 125.092C21.6124 124.85 21.8803 124.72 22.1332 124.843C30.2009 128.757 35.4884 138.002 38.8001 148.146C42.0223 158.017 43.3329 168.614 43.5556 175.629H36.9241C19.9865 151.074 19.534 132.312 21.5452 125.092ZM22.5807 123.921C21.7799 123.532 20.8048 123.93 20.5577 124.817C18.4365 132.432 19.0267 151.597 36.2341 176.434L36.3869 176.654H44.6081L44.5952 176.13C44.4208 169.048 43.1154 158.063 39.7746 147.828C36.4417 137.619 31.0397 128.025 22.5807 123.921Z" fill="#06CB13"/>
<path fill-rule="evenodd" clip-rule="evenodd" d="M23.2295 130.482L30.032 148.849L26.0453 147.027L25.6193 147.959L30.5345 150.205L36.7021 166.858L33.237 165.48L32.8581 166.432L37.1812 168.151L40.2066 176.32L41.1679 175.964L35.0315 159.396L38.1839 152.372L37.2487 151.952L34.5234 158.024L27.8664 140.05L29.5056 134.698L28.5254 134.398L27.2796 138.466L24.1907 130.126L23.2295 130.482Z" fill="#06CB13"/>
<path d="M146.945 30.2411L148.89 28.2294C149.236 27.8711 149.839 28.1677 149.765 28.6607L149.365 31.3637C149.34 31.5272 149.396 31.6924 149.515 31.8073L151.666 33.8856C152.011 34.2203 151.747 34.8045 151.267 34.7648L148.255 34.5161C148.109 34.504 147.964 34.5553 147.858 34.6571L145.462 36.9564C145.106 37.2979 144.521 36.989 144.601 36.5025L145.112 33.4315C145.137 33.2818 145.095 33.1289 144.996 33.0138L142.791 30.4425C142.467 30.0644 142.818 29.4927 143.302 29.6111L146.455 30.3828C146.632 30.4261 146.818 30.3722 146.945 30.2411ZM159.084 62.5678L159.931 62.2509C160.397 62.0762 160.813 62.6028 160.535 63.0165L160.046 63.7448C159.954 63.8821 159.934 64.0554 159.992 64.2104L160.377 65.236C160.545 65.6871 160.055 66.101 159.639 65.8591L158.664 65.2921C158.537 65.2184 158.384 65.2026 158.245 65.2492L157.047 65.6468C156.579 65.8024 156.183 65.2719 156.465 64.8674L157.114 63.9363C157.201 63.8122 157.228 63.6553 157.189 63.5092L156.854 62.2762C156.724 61.7954 157.287 61.4301 157.673 61.7449L158.58 62.485C158.722 62.6001 158.914 62.6317 159.084 62.5678ZM22.4551 84.7805L21.018 86.6579C20.9305 86.7719 20.7879 86.8267 20.6482 86.8003L18.8719 86.4607C18.4898 86.3876 18.2592 86.8778 18.5542 87.1361L19.9502 88.3589C20.0521 88.4483 20.1002 88.5857 20.0768 88.7205L19.7266 90.7371C19.6608 91.1164 20.1184 91.3514 20.3775 91.071L21.8115 89.5212C21.8957 89.4305 22.0178 89.3864 22.1394 89.4034L23.799 89.634C24.1729 89.6857 24.3846 89.2106 24.1003 88.9574L22.8661 87.8587C22.7669 87.7705 22.7196 87.6363 22.7408 87.504L23.13 85.0816C23.1937 84.6854 22.6974 84.4636 22.4551 84.7805Z" fill="#5EF468"/>
<path d="M39.5889 33.0658C39.5889 29.6691 42.3424 26.9155 45.7391 26.9155H115.708C119.105 26.9155 121.858 29.6691 121.858 33.0658V169.878C121.858 173.275 119.105 176.029 115.708 176.029H45.7391C42.3425 176.029 39.5889 173.275 39.5889 169.878V33.0658Z" fill="white"/>
<path fill-rule="evenodd" clip-rule="evenodd" d="M39.0767 33.0656C39.0767 29.3859 42.0596 26.403 45.7393 26.403H115.708C119.388 26.403 122.371 29.3859 122.371 33.0656V169.878C122.371 173.558 119.388 176.541 115.708 176.541H45.7393C42.0596 176.541 39.0767 173.558 39.0767 169.878V33.0656ZM45.7393 27.428C42.6258 27.428 40.1017 29.9521 40.1017 33.0656V169.878C40.1017 172.992 42.6258 175.516 45.7393 175.516H115.708C118.822 175.516 121.346 172.992 121.346 169.878V33.0656C121.346 29.9521 118.822 27.428 115.708 27.428H45.7393Z" fill="#06CB13"/>
<path d="M64.3651 31.9147L61.6987 26.9153H99.7485L96.6136 32.1397C95.6875 33.6834 94.0192 34.628 92.2187 34.628H68.8873C66.9948 34.628 65.256 33.5848 64.3651 31.9147Z" fill="#06CB13"/>
<path d="M120.85 30.0004H40.0735C42.7472 27.3266 45.301 26.8296 46.2437 26.9153H114.679C117.97 26.9153 120.164 28.972 120.85 30.0004ZM120.811 173.105H40.637C43.4156 175.822 45.0216 176.327 46.0012 176.24H115.446C118.866 176.24 120.098 174.15 120.811 173.105Z" fill="#06CB13"/>
<path d="M49.0205 44.332C49.0205 43.4828 49.7088 42.7944 50.558 42.7944H76.8272C77.6764 42.7944 78.365 43.4828 78.365 44.332V44.4009C78.365 45.2501 77.6764 45.9385 76.8272 45.9385H50.558C49.7088 45.9385 49.0205 45.2501 49.0205 44.4009V44.332Z" fill="#5EF468"/>
<path fill-rule="evenodd" clip-rule="evenodd" d="M48.3018 54.6811C48.3018 53.5488 49.2196 52.631 50.3518 52.631H111.341C112.474 52.631 113.391 53.5488 113.391 54.6811V110.545C113.391 111.678 112.474 112.595 111.341 112.595H50.3518C49.2196 112.595 48.3018 111.678 48.3018 110.545V54.6811ZM50.3518 53.656C49.7857 53.656 49.3268 54.1149 49.3268 54.6811V110.545C49.3268 111.112 49.7857 111.57 50.3518 111.57H111.341C111.907 111.57 112.366 111.112 112.366 110.545V54.6811C112.366 54.1149 111.907 53.656 111.341 53.656H50.3518Z" fill="#E7FFE9"/>
<path d="M64.7021 151.96C64.7021 151.111 65.3907 150.423 66.24 150.423H95.4531C96.3023 150.423 96.9909 151.111 96.9909 151.96V160.161C96.9909 161.01 96.3023 161.698 95.4531 161.698H66.24C65.3907 161.698 64.7021 161.01 64.7021 160.161V151.96Z" fill="#5EF468"/>
<path fill-rule="evenodd" clip-rule="evenodd" d="M116.083 34.2424V38.4345H115.058V34.2424H116.083ZM113.463 34.7665V38.4345H112.438V34.7665H113.463ZM110.843 35.8145V38.4345H109.818V35.8145H110.843ZM108.223 36.8625V38.4345H107.198V36.8625H108.223Z" fill="#06CB13"/>
<path d="M48.8142 83.3818H113.391V89.0197H48.8142V83.3818Z" fill="#E7FFE9"/>
<path d="M63.165 53.1436H68.8023V84.4074H63.165V53.1436ZM91.3531 86.4574H96.991V112.083H91.3531V86.4574Z" fill="#E7FFE9"/>
<path fill-rule="evenodd" clip-rule="evenodd" d="M81.6165 87.8075C83.4309 87.8075 91.3708 73.8001 91.3708 68.4564C91.3708 63.1128 87.0036 58.7812 81.6165 58.7812C76.2287 58.7812 71.8616 63.1128 71.8616 68.4564C71.8616 73.8001 79.1211 87.8075 81.6165 87.8075ZM81.6165 73.5323C84.3759 73.5323 86.6124 71.2952 86.6124 68.5358C86.6124 65.7764 84.3759 63.5399 81.6165 63.5399C78.8571 63.5399 76.62 65.7764 76.62 68.5358C76.62 71.2952 78.8571 73.5323 81.6165 73.5323Z" fill="#5EF468"/>
<path d="M69.4505 141.391C69.4505 143.549 67.7016 145.298 65.5445 145.298C63.3868 145.298 61.6377 143.549 61.6377 141.391C61.6377 139.234 63.3868 137.485 65.5445 137.485C67.7016 137.485 69.4505 139.234 69.4505 141.391Z" fill="white"/>
<path fill-rule="evenodd" clip-rule="evenodd" d="M65.5446 137.997C63.6697 137.997 62.1503 139.517 62.1503 141.392C62.1503 143.266 63.6697 144.785 65.5446 144.785C67.4188 144.785 68.9384 143.266 68.9384 141.392C68.9384 139.517 67.4188 137.997 65.5446 137.997ZM61.1252 141.392C61.1252 138.951 63.1039 136.972 65.5446 136.972C67.9846 136.972 69.9634 138.951 69.9634 141.392C69.9634 143.832 67.9846 145.81 65.5446 145.81C63.1039 145.81 61.1252 143.832 61.1252 141.392Z" fill="#06CB13"/>
<path d="M99.5866 141.391C99.5866 143.549 97.9625 145.298 95.9591 145.298C93.9557 145.298 92.3315 143.549 92.3315 141.391C92.3315 139.234 93.9557 137.485 95.9591 137.485C97.9625 137.485 99.5866 139.234 99.5866 141.391Z" fill="white"/>
<path fill-rule="evenodd" clip-rule="evenodd" d="M95.9591 137.997C94.2738 137.997 92.8443 139.481 92.8443 141.392C92.8443 143.302 94.2738 144.785 95.9591 144.785C97.6443 144.785 99.0744 143.302 99.0744 141.392C99.0744 139.481 97.6443 137.997 95.9591 137.997ZM91.8193 141.392C91.8193 138.987 93.6375 136.972 95.9591 136.972C98.2806 136.972 100.099 138.987 100.099 141.392C100.099 143.796 98.2806 145.81 95.9591 145.81C93.6375 145.81 91.8193 143.796 91.8193 141.392Z" fill="#06CB13"/>
<path d="M100.108 140.814C99.6742 138.713 97.8548 137.137 95.6763 137.137C93.4977 137.137 91.6783 138.713 91.2442 140.814H70.2816C69.8469 138.713 68.0274 137.137 65.8489 137.137C63.6704 137.137 61.8511 138.713 61.4169 140.814C60.7232 140.814 59.2793 140.698 59.0527 140.234C58.7695 139.653 57.9036 133.171 58.487 132.3C59.5245 130.751 68.2089 129.591 68.9643 129.398C70.085 127.217 72.3089 122.933 72.973 121.795C73.0479 121.666 73.0063 121.497 72.8772 121.422C72.4261 121.162 72.6101 120.465 73.1311 120.46C75.0853 120.44 77.3382 120.399 78.9693 120.399C82.7449 120.399 94.1668 119.916 94.9215 120.399C95.6763 120.883 96.1488 120.593 96.809 123.496C97.4699 126.398 97.8472 128.817 98.6026 129.687C99.358 130.558 100.302 130.655 100.679 132.3C101.056 133.944 101.906 139.943 101.812 140.523C101.34 140.62 100.645 140.911 100.108 140.814Z" fill="white"/>
<path fill-rule="evenodd" clip-rule="evenodd" d="M83.9058 120.821C81.9068 120.869 80.0962 120.912 78.9691 120.912C77.8716 120.912 76.4945 120.93 75.1122 120.948C74.4444 120.957 73.7754 120.966 73.1366 120.973C73.1359 120.974 73.1353 120.975 73.1347 120.976C73.1347 120.977 73.1347 120.978 73.1347 120.979C73.5177 121.201 73.628 121.688 73.4156 122.053C72.7604 123.176 70.5447 127.444 69.4196 129.632L69.3143 129.837L69.0913 129.894C68.9326 129.934 68.4991 130.007 67.9195 130.105C67.7104 130.14 67.4817 130.179 67.241 130.22C66.3067 130.38 65.1255 130.59 63.9379 130.842C62.747 131.094 61.5635 131.386 60.62 131.706C60.1477 131.866 59.7492 132.029 59.445 132.191C59.1269 132.361 58.9703 132.499 58.9127 132.585C58.9127 132.585 58.9126 132.585 58.9123 132.586C58.9079 132.597 58.8699 132.688 58.8409 132.928C58.8129 133.16 58.8001 133.464 58.8019 133.823C58.8053 134.539 58.866 135.432 58.9548 136.324C59.0433 137.217 59.1586 138.099 59.2688 138.791C59.324 139.137 59.3772 139.432 59.4244 139.655C59.4481 139.767 59.4693 139.856 59.4875 139.923C59.4956 139.953 59.502 139.973 59.5066 139.988C59.5219 139.999 59.556 140.021 59.6216 140.049C59.7501 140.104 59.9318 140.154 60.1517 140.193C60.4357 140.246 60.7472 140.275 61.02 140.29C61.644 138.176 63.5631 136.625 65.8487 136.625C68.1388 136.625 70.0609 138.182 70.6814 140.301H90.844C91.4645 138.182 93.386 136.625 95.6761 136.625C97.9693 136.625 99.8933 138.186 100.511 140.31C100.615 140.297 100.732 140.275 100.863 140.243C100.988 140.213 101.111 140.178 101.239 140.142L101.283 140.13C101.287 140.129 101.291 140.128 101.296 140.127C101.295 140.12 101.294 140.113 101.294 140.105C101.28 139.892 101.254 139.612 101.218 139.28C101.146 138.618 101.038 137.767 100.915 136.881C100.667 135.102 100.363 133.212 100.179 132.415C100.016 131.702 99.7446 131.358 99.4403 131.085C99.3175 130.975 99.1946 130.881 99.0541 130.773C98.9981 130.73 98.9395 130.685 98.8765 130.635C98.666 130.471 98.4355 130.278 98.215 130.023C97.9699 129.74 97.779 129.362 97.6184 128.945C97.4558 128.523 97.3109 128.025 97.1736 127.479C97.0098 126.83 96.8479 126.078 96.6746 125.273C96.5593 124.738 96.439 124.178 96.3092 123.609C95.9791 122.16 95.7158 121.618 95.5085 121.37C95.4165 121.261 95.3258 121.199 95.1998 121.131C95.1702 121.115 95.1317 121.096 95.087 121.074C94.9723 121.016 94.8155 120.938 94.6706 120.847C94.6599 120.844 94.6284 120.835 94.5673 120.824C94.4639 120.805 94.319 120.787 94.1307 120.772C93.7558 120.74 93.2462 120.719 92.6319 120.708C91.4059 120.685 89.7969 120.7 88.0871 120.731C86.7093 120.755 85.264 120.789 83.9058 120.821ZM58.5919 140.458C58.5238 140.318 58.4684 140.089 58.4216 139.868C58.3695 139.622 58.3132 139.308 58.2565 138.952C58.1429 138.238 58.0251 137.336 57.9347 136.426C57.8445 135.517 57.7805 134.589 57.7768 133.828C57.775 133.448 57.7881 133.097 57.8233 132.805C57.8552 132.541 57.9141 132.234 58.0611 132.015C58.2629 131.714 58.6045 131.477 58.9629 131.286C59.3352 131.088 59.7913 130.905 60.2909 130.735C61.2911 130.396 62.5204 130.094 63.725 129.839C64.9327 129.583 66.1291 129.37 67.0678 129.209C67.3538 129.161 67.6115 129.117 67.837 129.079C68.1766 129.022 68.4424 128.977 68.6207 128.945C69.7125 126.824 71.6737 123.047 72.424 121.722C71.7789 121.126 72.1733 119.958 73.1252 119.948C73.7577 119.941 74.423 119.933 75.0889 119.924C76.4756 119.905 77.8653 119.887 78.9691 119.887C80.0867 119.887 81.8728 119.844 83.8579 119.797C85.2181 119.765 86.6721 119.73 88.0688 119.706C89.7805 119.675 91.4047 119.66 92.6508 119.683C93.2726 119.694 93.8081 119.716 94.217 119.75C94.4205 119.767 94.6019 119.788 94.7512 119.816C94.8753 119.839 95.0568 119.878 95.1979 119.968C95.3044 120.036 95.3844 120.076 95.4827 120.125C95.5406 120.153 95.6049 120.185 95.6836 120.227C95.8796 120.333 96.0893 120.469 96.2928 120.711C96.6746 121.165 96.9783 121.929 97.309 123.382C97.4451 123.981 97.568 124.551 97.6832 125.088C97.8527 125.875 98.0064 126.591 98.1671 127.228C98.3006 127.758 98.4336 128.21 98.5747 128.577C98.7183 128.949 98.8576 129.2 98.9899 129.352C99.1467 129.533 99.3175 129.679 99.5084 129.829C99.5537 129.864 99.6016 129.9 99.6514 129.939C99.8019 130.055 99.9701 130.183 100.124 130.322C100.575 130.726 100.964 131.252 101.178 132.185C101.373 133.032 101.682 134.964 101.93 136.74C102.054 137.632 102.164 138.493 102.237 139.17C102.273 139.508 102.301 139.804 102.317 140.036C102.331 140.244 102.341 140.464 102.318 140.606L102.261 140.955L101.914 141.026C101.817 141.046 101.703 141.077 101.56 141.117C101.546 141.121 101.531 141.125 101.516 141.129C101.391 141.165 101.248 141.204 101.105 141.239C100.793 141.315 100.397 141.387 100.017 141.318L99.6766 141.257L99.6066 140.918C99.2186 139.042 97.5982 137.65 95.6761 137.65C93.7539 137.65 92.1336 139.042 91.7455 140.918L91.6611 141.326H69.8637L69.7793 140.918C69.3912 139.042 67.7708 137.65 65.8487 137.65C63.9266 137.65 62.3064 139.042 61.9186 140.918L61.8341 141.326H61.4167C61.0492 141.326 60.4823 141.296 59.9672 141.202C59.7111 141.155 59.446 141.089 59.2183 140.991C59.0114 140.903 58.7323 140.746 58.5919 140.458Z" fill="#06CB13"/>
<path d="M100.491 140.275C100.051 138.375 98.2081 136.949 96.0012 136.949C93.7937 136.949 91.9503 138.375 91.5106 140.275L90.7413 140.242C90.9007 138.765 92.1752 135.81 96.0012 135.81C99.8266 135.81 101.102 138.787 101.261 140.275H100.491ZM70.2714 140.275C69.8316 138.375 67.9882 136.949 65.7814 136.949C63.5738 136.949 61.7305 138.375 61.2905 140.275C61.0832 140.275 60.8098 140.266 60.5215 140.242C60.6807 138.765 61.9556 135.81 65.7814 135.81C69.6067 135.81 70.8818 138.787 71.0412 140.275H70.2714Z" fill="#06CB13"/>
<path d="M67.7765 141.391C67.7765 142.624 66.9021 143.624 65.8229 143.624C64.7443 143.624 63.8699 142.624 63.8699 141.391C63.8699 140.159 64.7443 139.159 65.8229 139.159C66.9021 139.159 67.7765 140.159 67.7765 141.391ZM97.9126 141.391C97.9126 142.624 96.9127 143.624 95.6798 143.624C94.4469 143.624 93.4478 142.624 93.4478 141.391C93.4478 140.159 94.4469 139.159 95.6798 139.159C96.9127 139.159 97.9126 140.159 97.9126 141.391ZM59.2615 140.275H60.6033C60.7412 139.12 61.3503 137.934 61.6376 137.485H59.2615C58.4402 137.485 57.7965 138.191 57.8723 139.009C57.9387 139.726 58.5408 140.275 59.2615 140.275ZM101.396 140.275H100.681C100.535 139.12 99.8908 137.934 99.5865 137.485H101.396C102.22 137.485 102.866 138.196 102.785 139.016C102.715 139.73 102.114 140.275 101.396 140.275Z" fill="#06CB13"/>
<path d="M59.4054 135.253C59.4054 136.177 59.1556 136.927 58.8474 136.927C58.5392 136.927 58.2893 136.177 58.2893 135.253C58.2893 134.328 58.5392 133.578 58.8474 133.578C59.1556 133.578 59.4054 134.328 59.4054 135.253ZM101.819 135.81C101.819 136.427 101.569 136.927 101.261 136.927C100.952 136.927 100.703 136.427 100.703 135.81C100.703 135.194 100.952 134.695 101.261 134.695C101.569 134.695 101.819 135.194 101.819 135.81Z" fill="#5EF468"/>
<path d="M72.4659 130.23H82.4022C83.2515 130.23 83.9394 129.541 83.9394 128.692V124.032C83.9394 123.202 83.2811 122.52 82.4507 122.5C79.1684 122.417 74.4088 122.348 74.0837 122.541C73.7996 122.71 72.3216 125.567 71.095 128.026C70.5878 129.042 71.3306 130.23 72.4659 130.23ZM85.4558 128.692V124.026C85.4558 123.198 86.1123 122.518 86.9401 122.495C89.7946 122.415 93.6994 122.352 93.8903 122.541C94.0723 122.721 94.5486 125.95 94.8939 128.499C95.0186 129.417 94.3023 130.23 93.3756 130.23H86.9937C86.1444 130.23 85.4558 129.541 85.4558 128.692Z" fill="white"/>
<path fill-rule="evenodd" clip-rule="evenodd" d="M74.2656 123.017C74.2656 123.017 74.2675 123.016 74.2726 123.015C74.2682 123.016 74.2656 123.017 74.2656 123.017ZM74.3557 123.001C74.3828 122.998 74.4143 122.994 74.4521 122.991C74.6039 122.976 74.8175 122.963 75.0846 122.954C75.6182 122.935 76.339 122.928 77.1573 122.929C78.7922 122.933 80.7981 122.971 82.4374 123.012C82.988 123.026 83.4271 123.478 83.4271 124.033V128.693C83.4271 129.258 82.9685 129.718 82.4021 129.718H72.4657C71.7072 129.718 71.2183 128.926 71.5535 128.255C72.1665 127.027 72.8399 125.703 73.3943 124.667C73.6722 124.148 73.9179 123.706 74.1088 123.387C74.2052 123.227 74.2833 123.104 74.3425 123.02C74.3475 123.014 74.3519 123.008 74.3557 123.001ZM74.4068 122.936C74.4099 122.933 74.4112 122.931 74.4112 122.932C74.4112 122.932 74.4099 122.933 74.4068 122.936ZM77.1592 121.904C78.8054 121.908 80.8201 121.946 82.4632 121.988C83.5745 122.015 84.4521 122.926 84.4521 124.033V128.693C84.4521 129.825 83.5342 130.743 82.4021 130.743H72.4657C70.9537 130.743 69.9577 129.158 70.6362 127.797C71.2505 126.566 71.929 125.232 72.4909 124.183C72.7713 123.659 73.0258 123.201 73.2299 122.86C73.3313 122.691 73.4246 122.543 73.5052 122.429C73.5455 122.372 73.5878 122.316 73.63 122.267C73.6634 122.23 73.7301 122.155 73.8221 122.1C73.9286 122.037 74.0477 122.014 74.1006 122.005C74.1749 121.99 74.2612 121.979 74.3519 121.971C74.5353 121.952 74.7728 121.939 75.0481 121.93C75.6012 121.909 76.3371 121.903 77.1592 121.904ZM94.0577 122.051C94.0942 122.066 94.1755 122.102 94.2505 122.177C94.3437 122.269 94.3891 122.383 94.403 122.419L94.4042 122.42C94.4269 122.478 94.447 122.542 94.4647 122.606C94.5006 122.734 94.5384 122.898 94.5775 123.086C94.655 123.465 94.7438 123.973 94.837 124.55C95.0229 125.705 95.2289 127.154 95.4021 128.43C95.5684 129.658 94.6096 130.743 93.3754 130.743H86.9935C85.8614 130.743 84.9435 129.825 84.9435 128.693V124.026C84.9435 122.923 85.8179 122.014 86.9255 121.983C88.355 121.942 90.0497 121.906 91.4136 121.904C92.094 121.903 92.6988 121.911 93.148 121.931C93.371 121.941 93.5663 121.954 93.7169 121.973C93.7912 121.982 93.8675 121.994 93.9361 122.012C93.9701 122.02 94.013 122.032 94.0577 122.051ZM91.4149 122.929C90.0648 122.931 88.3802 122.967 86.9545 123.007C86.4057 123.023 85.9685 123.473 85.9685 124.026V128.693C85.9685 129.258 86.4272 129.718 86.9935 129.718H93.3754C93.9947 129.718 94.4685 129.175 94.3859 128.568C94.2139 127.295 94.0086 125.855 93.8246 124.713C93.7326 124.141 93.6463 123.65 93.5732 123.293C93.5474 123.168 93.5241 123.064 93.5039 122.981C93.4 122.971 93.2658 122.962 93.1026 122.955C92.6767 122.936 92.0909 122.929 91.4149 122.929ZM93.4517 122.799C93.4517 122.8 93.4517 122.8 93.4523 122.8C93.4454 122.788 93.446 122.785 93.4517 122.799Z" fill="#06CB13"/>
<path d="M143.722 97.9297L146.213 104.002C146.213 105.842 145.161 109.522 140.954 109.522C136.747 109.522 134.219 107.13 133.481 105.934V101.242C132.097 101.242 130.436 99.31 129.606 97.9297C128.776 96.55 124.9 88.2693 129.329 83.0252C133.758 77.781 139.847 81.3695 143.722 86.3377C146.822 90.3117 145.013 95.7215 143.722 97.9297Z" fill="#96EF9C"/>
<path d="M178.043 176.041H151.472H119.366C114.384 169.416 111.062 120.287 114.106 115.042C118.914 106.762 128.499 104.83 132.928 103.726C133.665 105.106 135.806 106.762 139.57 106.762C143.335 106.762 145.752 104.002 146.49 102.622C151.841 103.634 163.871 106.818 169.186 111.455C175.829 117.251 180.811 143.472 182.749 160.033C184.298 173.281 180.258 176.225 178.043 176.041Z" fill="#5EF468"/>
<path d="M156.177 171.073C161.713 168.865 168.447 157.088 171.123 151.476C169.001 159.48 160.605 174.726 154.24 173.557C145.825 172.011 133.019 154.328 127.669 145.68C134.865 155.064 150.641 173.281 156.177 171.073Z" fill="#06CB13"/>
<path d="M145.936 167.208C151.914 164.117 159.683 165 162.82 165.829C161.62 168.129 158.391 172.618 155.07 172.176C151.749 171.735 147.597 168.681 145.936 167.208ZM151.195 140.988L154.239 131.603L149.534 139.607C145.77 138.504 140.124 135.744 133.481 134.363C139.57 136.571 151.01 143.011 157.56 146.784L151.195 140.988Z" fill="#06CB13"/>
<path d="M129.883 132.431C130.105 132.873 131.267 134.455 131.821 135.191L127.946 141.815C127.617 141.356 126.685 140.27 125.577 139.607C124.194 138.779 119.919 137.952 119.919 134.639C119.919 131.989 121.764 129.855 122.687 129.119C121.211 127.555 117.981 124.979 117.981 124.151C117.981 123.533 118.258 122.495 119.366 122.771C120.472 123.047 124.348 127.463 125.178 127.739C126.008 128.015 128.222 127.739 129.052 128.291C129.883 128.843 129.606 131.879 129.883 132.431Z" fill="#96EF9C"/>
<path d="M139.847 99.862C137.854 101.408 134.773 101.426 133.481 101.242V103.174C136.138 103.174 138.832 100.966 139.847 99.862ZM142.061 95.7216C142.282 96.6049 143.814 99.2181 144.552 100.414C146.767 99.5861 147.32 87.7175 145.936 84.1296C144.829 81.2587 140.677 80.5412 139.016 80.8171C137.91 79.9893 136.527 78.333 128.223 79.7133C119.92 81.093 119.92 90.4775 125.455 90.7535C130.991 91.03 133.204 88.2694 134.034 88.5453C134.865 88.8219 135.418 89.3738 137.356 91.8578C139.294 94.3419 138.74 94.3419 139.016 91.8578C139.294 89.3738 140.401 89.3738 142.338 90.7535C144.276 92.1338 141.785 94.6179 142.061 95.7216Z" fill="#06CB13"/>
<path d="M102.677 112.313L106.522 129.183C106.56 129.351 106.691 129.483 106.858 129.525L113.39 131.149C113.72 131.231 114.021 130.939 113.949 130.608L110.511 114.961C110.479 114.815 110.377 114.693 110.237 114.637L103.299 111.79C102.955 111.649 102.595 111.952 102.677 112.313Z" fill="white"/>
<path fill-rule="evenodd" clip-rule="evenodd" d="M103.472 111.367C102.786 111.085 102.066 111.693 102.231 112.415L106.076 129.284C106.152 129.62 106.412 129.885 106.747 129.968L113.279 131.593C113.939 131.756 114.542 131.172 114.396 130.51L110.958 114.863C110.894 114.571 110.69 114.328 110.412 114.214L103.472 111.367ZM103.124 112.212L110.064 115.059L113.501 130.706L106.969 129.081L103.124 112.212Z" fill="#06CB13"/>
<path d="M112.005 131.967V134.354C109.275 135.706 103.914 137.695 104.299 134.831C104.781 131.251 103.336 130.774 102.614 126.716C102.035 123.471 103.496 122.182 104.299 121.943C104.46 122.579 104.829 123.995 105.022 124.568C105.262 125.284 107.67 124.091 109.597 123.852C111.523 123.614 112.726 127.194 112.968 129.103C113.208 131.012 112.005 131.251 112.005 131.967Z" fill="#96EF9C"/>
<path d="M119.642 158.376C119.642 161.909 117.243 164.172 116.044 165L116.321 166.657C117.612 166.932 120.494 163.621 120.749 160.308C121.19 154.595 116.368 140.21 113.866 133.632C113.854 133.599 113.842 133.566 113.83 133.536C113.842 133.568 113.854 133.6 113.866 133.632C115.29 137.416 119.642 153.999 119.642 158.376Z" fill="#06CB13"/>
<path d="M107.676 134.363C103.247 134.363 103.866 133.535 102.759 131.603C102.759 138.32 100.268 152.58 101.375 158.1C102.758 165 107.676 167.484 110.72 166.932C113.764 166.38 118.747 165 119.578 158.928C120.242 154.07 115.611 138.687 113.212 131.603C112.935 132.247 111.499 134.363 107.676 134.363Z" fill="#5EF468"/>
<path d="M102.417 161.688C109.281 157.935 116.348 159.94 119.024 161.412C118.286 163.253 115.592 166.988 110.72 167.208C105.849 167.429 103.155 163.62 102.417 161.688Z" fill="#06CB13"/>
</svg>
