<svg width="316" height="316" viewBox="0 0 316 316" fill="none" xmlns="http://www.w3.org/2000/svg">
<path d="M149.152 35.4551C227.52 28.4715 227.678 72.6989 262.994 113.905C298.31 155.112 305.888 173.8 292.616 221.282C279.344 268.764 234.402 306.014 178.894 284.918C123.385 263.822 91.5894 284.084 56.5766 265.326C21.5638 246.568 8.54465 210.399 34.1912 167.739C59.8378 125.079 52.5192 44.063 149.152 35.4551Z" fill="#529C4F"/>
<path opacity="0.7" d="M149.152 35.4551C227.52 28.4715 227.678 72.6989 262.994 113.905C298.31 155.112 305.888 173.8 292.616 221.282C279.344 268.764 234.402 306.014 178.894 284.918C123.385 263.822 91.5894 284.084 56.5766 265.326C21.5638 246.568 8.54465 210.399 34.1912 167.739C59.8378 125.079 52.5192 44.063 149.152 35.4551Z" fill="white"/>
<path d="M125.136 266.704C124.443 264.01 122.792 261.661 120.491 260.097C118.191 258.533 115.399 257.861 112.639 258.207C109.879 258.554 107.34 259.895 105.498 261.979C103.655 264.063 102.636 266.747 102.63 269.529C102.639 270.496 102.769 271.457 103.016 272.392C103.648 274.846 105.076 277.02 107.076 278.576C109.076 280.131 111.536 280.979 114.07 280.987C115.035 280.986 115.997 280.865 116.933 280.627C118.789 280.153 120.495 279.218 121.894 277.909C121.778 277.733 121.675 277.549 121.584 277.359C119.919 278.959 117.784 279.982 115.495 280.279C113.205 280.576 110.88 280.131 108.862 279.009L108.596 278.864C106.76 277.777 105.286 276.17 104.363 274.246C103.439 272.322 103.106 270.168 103.406 268.055C103.707 265.942 104.627 263.965 106.05 262.375C107.473 260.785 109.336 259.652 111.403 259.12C113.129 258.677 114.938 258.668 116.669 259.094C118.4 259.52 119.998 260.368 121.322 261.562C122.645 262.756 123.653 264.259 124.254 265.937C124.856 267.615 125.033 269.416 124.769 271.178C124.978 271.141 125.189 271.118 125.401 271.109C125.601 269.637 125.511 268.141 125.136 266.704Z" fill="#263238"/>
<path d="M121.578 277.378C120.434 278.467 119.124 279.365 117.697 280.039C117.423 280.16 117.14 280.259 116.85 280.336C116.558 280.41 116.26 280.46 115.959 280.488C112.799 280.817 108.571 279.224 108.571 279.224L108.849 279.015C109.634 278.399 110.481 277.868 111.377 277.429C112.009 277.258 113.14 276.468 112.641 274.762C110.79 273.259 109.509 271.167 109.013 268.834C108.622 267.102 107.749 263.746 111.27 262.349C111.551 262.244 111.838 262.153 112.129 262.078C112.433 262.002 112.73 261.945 113.008 261.901C116.8 261.42 117.615 264.789 118.108 266.489C118.796 268.776 118.68 271.229 117.779 273.441C118.171 275.173 119.524 275.337 120.175 275.166C120.49 275.12 120.811 275.109 121.129 275.135C121.09 275.625 121.132 276.119 121.255 276.595C121.324 276.86 121.417 277.118 121.533 277.366L121.578 277.378Z" fill="#263238"/>
<path d="M125.54 280.203C124.659 280.203 123.796 279.956 123.049 279.489C122.302 279.023 121.7 278.356 121.313 277.565C120.926 276.773 120.769 275.889 120.859 275.013C120.949 274.137 121.283 273.303 121.823 272.608C122.363 271.912 123.088 271.382 123.915 271.077C124.741 270.772 125.637 270.706 126.499 270.885C127.362 271.064 128.157 271.481 128.794 272.089C129.431 272.698 129.885 273.473 130.103 274.326C130.279 275.021 130.294 275.748 130.147 276.45C130 277.152 129.695 277.811 129.255 278.378C128.815 278.944 128.252 279.403 127.609 279.719C126.965 280.036 126.258 280.201 125.54 280.203ZM125.54 271.419C125.197 271.419 124.855 271.463 124.523 271.551C123.537 271.811 122.687 272.437 122.145 273.302C121.604 274.166 121.412 275.204 121.608 276.205C121.805 277.205 122.375 278.094 123.203 278.69C124.03 279.285 125.054 279.543 126.065 279.411C127.077 279.279 128 278.767 128.647 277.979C129.295 277.191 129.618 276.186 129.551 275.169C129.484 274.151 129.032 273.197 128.287 272.5C127.542 271.804 126.56 271.417 125.54 271.419Z" fill="#263238"/>
<path d="M125.268 275.305L124.504 273.498L125.534 273.232L125.717 275.192L127.202 273.896L127.771 274.787L125.983 275.59L127.664 276.582L126.994 277.404L125.679 275.937L125.231 277.833L124.257 277.442L125.249 275.76L123.29 275.918L123.36 274.863L125.268 275.305Z" fill="#263238"/>
<path d="M117.59 262.154C114.348 258.602 111.946 261.237 111.946 261.237C111.946 261.237 108.577 260.081 107.44 264.757C106.302 269.434 109.614 273.106 106.808 274.654C106.808 274.654 110.372 276.171 115.441 274.869C120.51 273.567 122.905 270.528 122.905 270.528C119.707 270.496 120.838 265.699 117.59 262.154Z" fill="#263238"/>
<path d="M297.507 158.367C297.921 156.51 297.646 154.566 296.733 152.897C295.82 151.228 294.332 149.948 292.546 149.295C290.759 148.641 288.796 148.66 287.022 149.346C285.248 150.033 283.784 151.341 282.902 153.026C282.602 153.614 282.375 154.236 282.226 154.878C281.923 156.203 281.97 157.583 282.362 158.884C282.754 160.185 283.478 161.362 284.462 162.299C285.446 163.236 286.657 163.901 287.976 164.229C289.294 164.556 290.676 164.536 291.984 164.168C291.974 164.025 291.974 163.882 291.984 163.739C290.751 164.105 289.445 164.147 288.192 163.859C286.344 163.444 284.729 162.33 283.686 160.749C283.642 160.693 283.602 160.634 283.566 160.572C283.048 159.752 282.698 158.837 282.535 157.88C282.377 156.919 282.405 155.936 282.618 154.985C283.058 153.077 284.235 151.42 285.894 150.378C287.552 149.336 289.555 148.993 291.466 149.424C292.075 149.56 292.666 149.772 293.223 150.056C294.169 150.545 294.998 151.232 295.654 152.071C296.311 152.91 296.778 153.881 297.025 154.917C297.272 155.952 297.293 157.03 297.086 158.074C296.879 159.119 296.45 160.107 295.826 160.97C295.972 161.012 296.113 161.064 296.25 161.128C296.846 160.299 297.273 159.361 297.507 158.367Z" fill="#263238"/>
<path d="M291.984 163.738C290.946 164.042 289.867 164.178 288.786 164.143C288.573 164.128 288.362 164.098 288.154 164.054C287.954 164.008 287.757 163.947 287.566 163.871C285.544 163.081 283.458 160.774 283.458 160.774L283.698 160.736C284.375 160.606 285.064 160.551 285.752 160.572C285.94 160.607 286.134 160.603 286.32 160.558C286.506 160.514 286.68 160.431 286.832 160.315C286.984 160.198 287.11 160.052 287.202 159.884C287.293 159.716 287.349 159.53 287.364 159.34C286.706 157.843 286.581 156.165 287.01 154.587C287.32 153.412 287.825 151.086 290.423 151.345C290.635 151.367 290.846 151.401 291.055 151.446C291.265 151.497 291.461 151.553 291.643 151.617C294.095 152.508 293.539 154.827 293.311 156.041C293.013 157.649 292.174 159.107 290.935 160.174C290.864 160.352 290.832 160.542 290.841 160.733C290.85 160.924 290.899 161.111 290.986 161.282C291.073 161.452 291.195 161.602 291.344 161.722C291.493 161.841 291.666 161.928 291.851 161.975C292.057 162.045 292.254 162.138 292.439 162.253C292.264 162.541 292.136 162.854 292.06 163.182C292.018 163.367 291.995 163.555 291.99 163.745C291.99 163.745 291.984 163.732 291.984 163.738Z" fill="#263238"/>
<path d="M293.513 166.703C292.997 166.438 292.561 166.041 292.249 165.552C291.965 165.103 291.797 164.59 291.759 164.06C291.721 163.529 291.814 162.998 292.031 162.512C292.247 162.027 292.581 161.602 293.001 161.276C293.421 160.95 293.915 160.733 294.439 160.644C294.963 160.555 295.501 160.597 296.006 160.766C296.51 160.935 296.964 161.225 297.329 161.612C297.694 161.999 297.958 162.47 298.097 162.983C298.236 163.496 298.246 164.036 298.127 164.554C298.034 164.967 297.86 165.358 297.615 165.704C297.37 166.05 297.059 166.344 296.701 166.57C296.342 166.795 295.942 166.948 295.524 167.018C295.106 167.089 294.678 167.076 294.265 166.981C294.004 166.92 293.751 166.827 293.513 166.703ZM296.281 161.356C296.071 161.248 295.848 161.165 295.618 161.109C295.17 161.009 294.705 161.019 294.262 161.141C293.82 161.263 293.415 161.492 293.082 161.807C292.749 162.123 292.499 162.516 292.353 162.951C292.208 163.386 292.173 163.85 292.249 164.303C292.326 164.755 292.513 165.181 292.794 165.544C293.075 165.907 293.441 166.195 293.859 166.383C294.278 166.571 294.736 166.653 295.194 166.621C295.652 166.59 296.095 166.447 296.484 166.203C296.795 166.008 297.064 165.754 297.277 165.454C297.489 165.155 297.641 164.816 297.722 164.458C297.804 164.1 297.814 163.729 297.752 163.367C297.691 163.005 297.558 162.659 297.362 162.348C297.098 161.926 296.725 161.583 296.281 161.356Z" fill="#263238"/>
<path d="M294.885 163.631L294.98 162.285L295.687 162.443L295.182 163.707L296.496 163.385L296.566 164.105L295.22 164.029L295.934 165.167L295.27 165.451L294.929 164.143L294.05 165.173L293.583 164.63L294.714 163.916L293.45 163.397L293.829 162.765L294.885 163.631Z" fill="#263238"/>
<path d="M294.335 153.203C293.475 150.043 291.175 150.871 291.175 150.871C291.175 150.871 289.487 149.114 287.326 151.604C285.165 154.094 286.03 157.374 283.831 157.444C285.269 158.851 287.068 159.832 289.029 160.278C290.99 160.724 293.037 160.618 294.942 159.972C293.001 158.967 295.201 156.388 294.335 153.203Z" fill="#263238"/>
<path d="M211.802 50.7559C212.157 48.6492 211.913 46.4853 211.1 44.5099C210.287 42.5344 208.936 40.8265 207.201 39.5799C205.466 38.3334 203.417 37.5982 201.285 37.4578C199.153 37.3174 197.025 37.7774 195.141 38.7856C193.258 39.7938 191.695 41.3098 190.63 43.1615C189.564 45.0133 189.039 47.1266 189.114 49.2616C189.19 51.3966 189.862 53.4678 191.055 55.24C192.248 57.0123 193.913 58.4147 195.863 59.2879C196.746 59.6794 197.673 59.9596 198.625 60.1222C200.513 60.4441 202.452 60.2854 204.262 59.6608C204.229 59.4516 204.208 59.2405 204.199 59.0288C202.027 59.813 199.661 59.8796 197.448 59.2186C195.235 58.5576 193.293 57.204 191.907 55.3569C191.844 55.2811 191.78 55.1989 191.723 55.1167C190.901 53.9612 190.313 52.6558 189.992 51.2742C189.682 49.8896 189.643 48.458 189.878 47.0587C190.115 45.6597 190.624 44.3209 191.379 43.119C192.133 41.917 193.116 40.8755 194.273 40.0538C195.43 39.2321 196.737 38.6464 198.121 38.3302C199.504 38.0139 200.936 37.9733 202.335 38.2107C203.233 38.3584 204.108 38.6218 204.939 38.9944C206.356 39.629 207.619 40.5614 208.644 41.7282C209.668 42.8951 210.429 44.2689 210.874 45.7563C211.32 47.2436 211.44 48.8095 211.226 50.3473C211.012 51.8852 210.469 53.3588 209.634 54.668C209.849 54.7209 210.061 54.7884 210.266 54.8703C211.039 53.6109 211.561 52.2137 211.802 50.7559Z" fill="#263238"/>
<path d="M204.199 59.0288C202.713 59.5585 201.151 59.8466 199.573 59.882C199.274 59.8802 198.976 59.8548 198.682 59.8062C198.383 59.7563 198.09 59.6824 197.803 59.585C194.795 58.6054 191.572 55.4138 191.572 55.4138L191.913 55.3379C192.888 55.0985 193.886 54.9609 194.89 54.9271C195.553 55.0409 196.893 54.7691 197.133 53.0311C196.054 50.9031 195.737 48.4694 196.236 46.136C196.584 44.398 197.133 40.9663 200.932 41.1306C201.232 41.1476 201.532 41.1814 201.829 41.2317C202.123 41.2815 202.414 41.3469 202.701 41.4276C206.342 42.521 205.735 45.9401 205.495 47.6907C205.184 50.0624 204.069 52.2556 202.335 53.9033C201.987 55.6476 203.156 56.3428 203.82 56.4313C204.128 56.5157 204.425 56.6367 204.705 56.7915C204.466 57.2219 204.304 57.6901 204.224 58.1756C204.181 58.4451 204.162 58.718 204.168 58.9909C204.168 58.9909 204.205 59.0225 204.199 59.0288Z" fill="#263238"/>
<path d="M206.664 63.1999C205.907 62.8597 205.253 62.3257 204.769 61.6518C204.284 60.978 203.986 60.1882 203.905 59.3623C203.823 58.5364 203.961 57.7037 204.305 56.9482C204.648 56.1927 205.185 55.5413 205.861 55.0598C206.62 54.5203 207.523 54.2181 208.454 54.1915C209.385 54.1649 210.303 54.415 211.092 54.9103C211.881 55.4055 212.505 56.1236 212.886 56.9737C213.266 57.8238 213.386 58.7677 213.23 59.686C213.02 60.9164 212.33 62.0131 211.313 62.7358C210.295 63.4585 209.032 63.7481 207.801 63.5412C207.41 63.4737 207.028 63.3591 206.664 63.1999ZM210.254 55.1799C209.939 55.0384 209.608 54.9385 209.268 54.8828C208.25 54.713 207.206 54.937 206.348 55.5093C205.49 56.0816 204.882 56.9593 204.648 57.9638C204.414 58.9683 204.571 60.0243 205.088 60.917C205.604 61.8098 206.442 62.4723 207.429 62.7698C208.417 63.0674 209.481 62.9776 210.404 62.5188C211.328 62.06 212.043 61.2666 212.402 60.3C212.762 59.3333 212.74 58.2659 212.341 57.3148C211.942 56.3637 211.195 55.6003 210.254 55.1799Z" fill="#263238"/>
<path d="M208.415 58.6369V56.665L209.457 56.842L208.825 58.738L210.721 58.1566L210.879 59.2057H208.914L210.045 60.7983L209.103 61.2723L208.471 59.3763L207.283 60.9437L206.55 60.1853L208.143 59.054L206.291 58.422L206.784 57.493L208.415 58.6369Z" fill="#263238"/>
<path d="M124.026 37.143L106.181 40.1003C105.527 40.2087 105.085 40.827 105.193 41.4813L106.985 52.2927C107.093 52.9469 107.712 53.3894 108.366 53.281L126.21 50.3237C126.865 50.2152 127.307 49.597 127.199 48.9427L125.407 38.1313C125.298 37.477 124.68 37.0345 124.026 37.143Z" stroke="#263238" stroke-width="0.632" stroke-linecap="round" stroke-linejoin="round"/>
<path d="M105.253 41.8826L115.024 46.136C115.454 46.3232 115.928 46.3816 116.391 46.3042C116.853 46.2268 117.283 46.0169 117.628 45.6999L125.465 38.552" stroke="#263238" stroke-width="0.632" stroke-linecap="round" stroke-linejoin="round"/>
<path d="M108.634 50.5222L112.932 47.0778" stroke="#263238" stroke-width="0.632" stroke-linecap="round" stroke-linejoin="round"/>
<path d="M125.054 47.8044L119.871 45.9084" stroke="#263238" stroke-width="0.632" stroke-linecap="round" stroke-linejoin="round"/>
<path d="M199.972 261.854L184.416 252.81C183.846 252.478 183.114 252.672 182.783 253.242L177.303 262.667C176.972 263.237 177.165 263.968 177.736 264.3L193.291 273.344C193.862 273.675 194.593 273.482 194.924 272.911L200.404 263.487C200.735 262.916 200.542 262.185 199.972 261.854Z" stroke="#263238" stroke-width="0.628705" stroke-linecap="round" stroke-linejoin="round"/>
<path d="M182.534 255.24L187.331 264.72C187.537 265.14 187.862 265.492 188.265 265.732C188.667 265.973 189.131 266.091 189.6 266.072L200.23 265.554" stroke="#263238" stroke-width="0.632" stroke-linecap="round" stroke-linejoin="round"/>
<path d="M179.627 264.056L185.138 264.138" stroke="#263238" stroke-width="0.632" stroke-linecap="round" stroke-linejoin="round"/>
<path d="M194.024 272.43L191.23 267.677" stroke="#263238" stroke-width="0.632" stroke-linecap="round" stroke-linejoin="round"/>
<path d="M33.4451 184.455L17.5251 193.041C16.9414 193.356 16.7235 194.084 17.0383 194.668L22.2405 204.314C22.5553 204.897 23.2837 205.115 23.8674 204.8L39.7873 196.214C40.371 195.899 40.589 195.171 40.2742 194.587L35.072 184.942C34.7572 184.358 34.0288 184.14 33.4451 184.455Z" stroke="#263238" stroke-width="0.632" stroke-linecap="round" stroke-linejoin="round"/>
<path d="M17.2092 195.023L27.8079 195.92C28.2751 195.955 28.7426 195.854 29.154 195.63C29.5655 195.406 29.9035 195.068 30.1273 194.656L35.2339 185.321" stroke="#263238" stroke-width="0.632" stroke-linecap="round" stroke-linejoin="round"/>
<path d="M23.2131 202.107L26.1583 197.449" stroke="#263238" stroke-width="0.632" stroke-linecap="round" stroke-linejoin="round"/>
<path d="M37.8628 194.207L32.3518 194.113" stroke="#263238" stroke-width="0.632" stroke-linecap="round" stroke-linejoin="round"/>
<path d="M47.1155 71.9658V250.221C47.1155 250.701 47.3057 251.162 47.6445 251.502C47.9833 251.842 48.443 252.034 48.923 252.035H157.311C157.792 252.035 158.253 251.844 158.594 251.504C158.934 251.164 159.125 250.702 159.125 250.221V71.9974C159.122 70.9022 158.685 69.8528 157.911 69.0784C157.136 68.304 156.087 67.8675 154.992 67.8641H129.174C128.674 67.8651 128.187 68.0273 127.787 68.3267C127.386 68.6262 127.092 69.0468 126.95 69.5263C126.81 70.0066 126.517 70.4282 126.115 70.7271C125.713 71.0258 125.226 71.1876 124.725 71.1885H81.5279C81.0274 71.1885 80.5403 71.0267 80.1393 70.7271C79.7384 70.4275 79.4451 70.0063 79.3032 69.5263C79.1632 69.0443 78.8677 68.6221 78.4627 68.3255C78.0606 68.0268 77.5732 67.865 77.0723 67.8641H51.2488C50.159 67.8674 49.1143 68.2996 48.3408 69.0672C47.5673 69.8348 47.1271 70.8761 47.1155 71.9658Z" fill="#263238" stroke="#263238" stroke-width="0.632" stroke-linecap="round" stroke-linejoin="round"/>
<path d="M47.1156 104.564L159.125 104.564V82.2547L47.1156 82.2547V104.564Z" fill="#529C4F" stroke="#263238" stroke-width="0.632" stroke-linecap="round" stroke-linejoin="round"/>
<path d="M47.1156 229.037H159.125L159.125 104.564L47.1156 104.564L47.1156 229.037Z" fill="white" stroke="#263238" stroke-width="0.632" stroke-linecap="round" stroke-linejoin="round"/>
<path d="M102.852 242.821H106.347C107.498 242.821 108.432 241.887 108.432 240.735V237.24C108.432 236.088 107.498 235.155 106.347 235.155H102.852C101.7 235.155 100.766 236.088 100.766 237.24V240.735C100.766 241.887 101.7 242.821 102.852 242.821Z" fill="white" stroke="#263238" stroke-width="0.632" stroke-linecap="round" stroke-linejoin="round"/>
<path d="M59.0162 90.2369H53.5178" stroke="#263238" stroke-width="0.632" stroke-linecap="round" stroke-linejoin="round"/>
<path d="M59.0162 93.2581H53.5178" stroke="#263238" stroke-width="0.632" stroke-linecap="round" stroke-linejoin="round"/>
<path d="M59.0162 96.2789H53.5178" stroke="#263238" stroke-width="0.632" stroke-linecap="round" stroke-linejoin="round"/>
<path d="M93.106 117.223H74.5758C74.2405 117.223 73.919 117.09 73.682 116.853C73.4449 116.616 73.3118 116.295 73.3118 115.959C73.3118 115.624 73.4449 115.303 73.682 115.066C73.919 114.829 74.2405 114.695 74.5758 114.695H93.0807C93.416 114.695 93.7375 114.829 93.9745 115.066C94.2116 115.303 94.3447 115.624 94.3447 115.959C94.3448 116.29 94.2151 116.608 93.9835 116.844C93.7519 117.081 93.4368 117.217 93.106 117.223Z" fill="#263238"/>
<path d="M138.275 120.327H74.0198C73.9316 120.327 73.8441 120.311 73.7624 120.277C73.6808 120.244 73.6066 120.195 73.5442 120.132C73.4818 120.07 73.4325 119.996 73.3992 119.914C73.3658 119.832 73.349 119.745 73.3499 119.657C73.3499 119.569 73.3673 119.482 73.401 119.401C73.4347 119.32 73.4842 119.247 73.5465 119.185C73.6088 119.123 73.6827 119.075 73.7639 119.042C73.8452 119.009 73.9321 118.992 74.0198 118.993H138.275C138.364 118.988 138.452 119.003 138.534 119.034C138.617 119.066 138.692 119.115 138.755 119.177C138.817 119.24 138.866 119.315 138.898 119.397C138.929 119.48 138.943 119.568 138.939 119.657C138.94 119.744 138.923 119.831 138.89 119.913C138.857 119.994 138.808 120.068 138.747 120.13C138.685 120.192 138.612 120.242 138.531 120.275C138.45 120.309 138.363 120.327 138.275 120.327Z" fill="#263238"/>
<path d="M67.1672 122.796C69.9617 120.224 70.1425 115.874 67.571 113.08C64.9996 110.285 60.6496 110.104 57.8551 112.676C55.0606 115.247 54.8798 119.597 57.4512 122.392C60.0227 125.186 64.3727 125.367 67.1672 122.796Z" fill="white" stroke="#263238" stroke-width="0.632" stroke-linecap="round" stroke-linejoin="round"/>
<path d="M63.0672 124.555C65.0011 124.27 67.3016 122.659 67.3016 122.659C66.6636 122.386 66.0012 122.175 65.3234 122.027C65.1509 122.021 64.9814 121.98 64.8262 121.904C64.671 121.828 64.5335 121.721 64.423 121.588C64.3125 121.456 64.2314 121.301 64.1851 121.135C64.1387 120.968 64.1282 120.794 64.1543 120.624C65.0336 119.439 65.4798 117.989 65.4183 116.516C65.3867 115.416 65.4183 113.273 63.0672 112.976C62.8902 112.976 62.707 112.976 62.5111 112.976C62.3151 112.976 62.1318 112.976 61.9549 112.976C59.6228 113.273 59.6418 115.416 59.6038 116.516C59.5423 117.989 59.9885 119.439 60.8678 120.624C60.8939 120.794 60.8834 120.968 60.837 121.135C60.7907 121.301 60.7096 121.456 60.5991 121.588C60.4885 121.721 60.3511 121.828 60.1959 121.904C60.0407 121.98 59.8712 122.021 59.6986 122.027C59.0229 122.174 58.3626 122.386 57.7268 122.659C57.7268 122.659 60.021 124.27 61.9549 124.555C62.1386 124.586 62.3246 124.603 62.5111 124.605C62.6975 124.604 62.8835 124.587 63.0672 124.555Z" fill="#263238"/>
<path d="M68.4708 125.762C69.9717 125.762 71.1884 124.545 71.1884 123.044C71.1884 121.543 69.9717 120.327 68.4708 120.327C66.9699 120.327 65.7532 121.543 65.7532 123.044C65.7532 124.545 66.9699 125.762 68.4708 125.762Z" fill="#529C4F" stroke="#263238" stroke-width="0.632" stroke-linecap="round" stroke-linejoin="round"/>
<path d="M68.3316 122.886L68.142 121.679H68.774L68.5844 122.886L69.6715 122.336L69.8737 122.968L68.6792 123.177L69.5324 124.03L69.0079 124.416L68.4454 123.335L67.8829 124.416L67.3583 124.03L68.2115 123.177L67.0107 122.968L67.2193 122.336L68.3316 122.886Z" fill="#263238"/>
<path d="M65.7278 113.823C64.3311 111.2 62.4857 112.408 62.4857 112.408C62.4857 112.408 60.6718 111.232 59.2688 113.823C57.8658 116.414 59.2688 119.164 57.3728 119.657C58.9167 120.611 60.6959 121.117 62.511 121.117C64.3261 121.117 66.1053 120.611 67.6491 119.657C65.7278 119.164 67.1498 116.446 65.7278 113.823Z" fill="#263238"/>
<path d="M63.7435 79.8342H64.9949V77.2809H63.7435V79.8342Z" fill="white"/>
<path d="M61.443 79.8279H62.6943V76.2381H61.443V79.8279Z" fill="white"/>
<path d="M59.1488 79.8342H60.4001V75.2143H59.1488V79.8342Z" fill="white"/>
<path d="M56.8483 79.8279H58.0996V74.1778H56.8483V79.8279Z" fill="white"/>
<path d="M144.09 79.3097H150.827C151.242 79.3097 151.579 78.973 151.579 78.5576V75.4419C151.579 75.0265 151.242 74.6898 150.827 74.6898H144.09C143.674 74.6898 143.338 75.0265 143.338 75.4419V78.5576C143.338 78.973 143.674 79.3097 144.09 79.3097Z" fill="white"/>
<path d="M142.377 78.3427H141.745C141.577 78.3427 141.417 78.2761 141.298 78.1575C141.18 78.039 141.113 77.8783 141.113 77.7107V76.2697C141.113 76.1021 141.18 75.9413 141.298 75.8228C141.417 75.7043 141.577 75.6377 141.745 75.6377H142.377V78.3237V78.3427Z" fill="white"/>
<path d="M151.478 90.2496C151.865 90.6377 152.13 91.132 152.236 91.6702C152.343 92.2084 152.288 92.7661 152.078 93.273C151.868 93.7799 151.513 94.2131 151.056 94.5179C150.6 94.8227 150.064 94.9854 149.515 94.9854C148.967 94.9854 148.43 94.8227 147.974 94.5179C147.518 94.2131 147.162 93.7799 146.952 93.273C146.742 92.7661 146.687 92.2084 146.794 91.6702C146.901 91.132 147.165 90.6377 147.553 90.2496C147.81 89.9911 148.116 89.7859 148.453 89.6459C148.789 89.5059 149.151 89.4338 149.515 89.4338C149.88 89.4338 150.241 89.5059 150.578 89.6459C150.915 89.7859 151.22 89.9911 151.478 90.2496Z" stroke="#263238" stroke-width="0.632" stroke-linecap="round" stroke-linejoin="round"/>
<path d="M151.478 94.1743L154.391 97.0878" stroke="#263238" stroke-width="0.632" stroke-linecap="round" stroke-linejoin="round"/>
<path d="M110.537 88.2462H97.5619C96.8987 88.2462 96.3611 88.7838 96.3611 89.447V97.0753C96.3611 97.7384 96.8987 98.2761 97.5619 98.2761H110.537C111.2 98.2761 111.738 97.7384 111.738 97.0753V89.447C111.738 88.7838 111.2 88.2462 110.537 88.2462Z" fill="#263238" stroke="#529C4F" stroke-width="0.632" stroke-linecap="round" stroke-linejoin="round"/>
<path d="M96.3611 89.447L103.06 93.8015C103.356 93.99 103.699 94.0901 104.049 94.0901C104.4 94.0901 104.743 93.99 105.038 93.8015L111.738 89.447" fill="#263238"/>
<path d="M96.3611 89.447L103.06 93.8015C103.356 93.99 103.699 94.0901 104.049 94.0901C104.4 94.0901 104.743 93.99 105.038 93.8015L111.738 89.447" stroke="#529C4F" stroke-width="0.632" stroke-linecap="round" stroke-linejoin="round"/>
<path d="M97.8018 96.2663L101.41 94.2375L97.8018 96.2663Z" fill="#263238"/>
<path d="M97.8018 96.2663L101.41 94.2375" stroke="#529C4F" stroke-width="0.632" stroke-linecap="round" stroke-linejoin="round"/>
<path d="M110.296 96.2663L106.694 94.2375L110.296 96.2663Z" fill="#263238"/>
<path d="M110.296 96.2663L106.694 94.2375" stroke="#529C4F" stroke-width="0.632" stroke-linecap="round" stroke-linejoin="round"/>
<path d="M86.786 139.255H74.5758C74.2405 139.255 73.919 139.122 73.682 138.885C73.4449 138.648 73.3118 138.326 73.3118 137.991C73.3118 137.656 73.4449 137.334 73.682 137.097C73.919 136.86 74.2405 136.727 74.5758 136.727H86.7607C87.096 136.727 87.4175 136.86 87.6545 137.097C87.8916 137.334 88.0247 137.656 88.0247 137.991C88.0248 138.322 87.8951 138.64 87.6635 138.876C87.4319 139.112 87.1168 139.248 86.786 139.255Z" fill="#263238"/>
<path d="M112.995 142.364H74.0198C73.8421 142.364 73.6717 142.294 73.5461 142.168C73.4204 142.042 73.3499 141.872 73.3499 141.694C73.358 141.523 73.4324 141.361 73.5573 141.243C73.6823 141.125 73.848 141.06 74.0198 141.062H112.995C113.081 141.058 113.166 141.071 113.247 141.101C113.327 141.131 113.401 141.177 113.463 141.236C113.525 141.295 113.574 141.366 113.608 141.445C113.642 141.524 113.659 141.609 113.659 141.694C113.659 141.871 113.589 142.04 113.465 142.166C113.341 142.291 113.172 142.363 112.995 142.364Z" fill="#263238"/>
<path d="M67.3079 144.689C70.03 142.041 70.09 137.687 67.442 134.965C64.794 132.243 60.4406 132.183 57.7186 134.831C54.9965 137.479 54.9364 141.832 57.5845 144.554C60.2325 147.277 64.5858 147.337 67.3079 144.689Z" fill="white" stroke="#263238" stroke-width="0.632" stroke-linecap="round" stroke-linejoin="round"/>
<path d="M63.0672 146.624C65.0011 146.34 67.3016 144.728 67.3016 144.728C66.6636 144.456 66.0012 144.244 65.3234 144.096C65.1509 144.091 64.9814 144.049 64.8262 143.973C64.671 143.898 64.5335 143.79 64.423 143.658C64.3125 143.525 64.2314 143.37 64.1851 143.204C64.1387 143.038 64.1282 142.864 64.1543 142.693C65.0317 141.508 65.4777 140.058 65.4183 138.585C65.3867 137.485 65.4183 135.336 63.0672 135.046C62.882 135.036 62.6963 135.036 62.5111 135.046C62.3258 135.036 62.1401 135.036 61.9549 135.046C59.6228 135.336 59.6418 137.485 59.6038 138.585C59.5444 140.058 59.9904 141.508 60.8678 142.693C60.8939 142.864 60.8834 143.038 60.837 143.204C60.7907 143.37 60.7096 143.525 60.5991 143.658C60.4885 143.79 60.3511 143.898 60.1959 143.973C60.0407 144.049 59.8712 144.091 59.6986 144.096C59.0229 144.244 58.3626 144.455 57.7268 144.728C57.7268 144.728 60.0399 146.308 61.9359 146.624C62.1196 146.656 62.3056 146.673 62.4921 146.675C62.6786 146.673 62.8646 146.656 63.0483 146.624H63.0672Z" fill="#263238"/>
<path d="M68.4708 147.793C69.9717 147.793 71.1884 146.577 71.1884 145.076C71.1884 143.575 69.9717 142.358 68.4708 142.358C66.9699 142.358 65.7532 143.575 65.7532 145.076C65.7532 146.577 66.9699 147.793 68.4708 147.793Z" fill="#529C4F" stroke="#263238" stroke-width="0.632" stroke-linecap="round" stroke-linejoin="round"/>
<path d="M68.3316 144.924L68.142 143.717H68.774L68.5844 144.924L69.6715 144.374L69.8737 145.006L68.6792 145.208L69.5324 146.068L69.0079 146.453L68.4454 145.373L67.8829 146.453L67.3583 146.068L68.2115 145.208L67.0107 145.006L67.2193 144.374L68.3316 144.924Z" fill="#263238"/>
<path d="M99.426 161.293H74.5758C74.2405 161.293 73.919 161.159 73.682 160.922C73.4449 160.685 73.3118 160.364 73.3118 160.029C73.3118 159.693 73.4449 159.372 73.682 159.135C73.919 158.898 74.2405 158.765 74.5758 158.765H99.4007C99.736 158.765 100.057 158.898 100.295 159.135C100.532 159.372 100.665 159.693 100.665 160.029C100.665 160.36 100.535 160.677 100.303 160.914C100.072 161.15 99.7568 161.286 99.426 161.293Z" fill="#263238"/>
<path d="M125.635 164.402H74.0198C73.8421 164.402 73.6717 164.332 73.5461 164.206C73.4204 164.08 73.3499 163.91 73.3499 163.732C73.3498 163.645 73.3672 163.558 73.401 163.477C73.4347 163.396 73.4842 163.322 73.5464 163.261C73.6087 163.199 73.6826 163.15 73.7639 163.117C73.8451 163.084 73.9321 163.068 74.0198 163.069H125.635C125.724 163.064 125.812 163.078 125.894 163.11C125.977 163.142 126.052 163.19 126.115 163.253C126.177 163.315 126.226 163.39 126.258 163.473C126.289 163.556 126.303 163.644 126.299 163.732C126.299 163.909 126.229 164.078 126.105 164.204C125.981 164.329 125.812 164.4 125.635 164.402Z" fill="#263238"/>
<path d="M64.1588 168.477C67.8471 167.573 70.1038 163.85 69.1992 160.161C68.2946 156.473 64.5714 154.216 60.8831 155.121C57.1948 156.025 54.9381 159.749 55.8427 163.437C56.7473 167.125 60.4705 169.382 64.1588 168.477Z" fill="white" stroke="#263238" stroke-width="0.632" stroke-linecap="round" stroke-linejoin="round"/>
<path d="M63.0672 168.63C65.0011 168.346 67.3016 166.734 67.3016 166.734C66.6636 166.462 66.0012 166.25 65.3234 166.102C65.1509 166.097 64.9814 166.055 64.8262 165.98C64.671 165.904 64.5335 165.796 64.423 165.664C64.3125 165.531 64.2314 165.377 64.1851 165.21C64.1387 165.044 64.1282 164.87 64.1543 164.699C65.0317 163.514 65.4777 162.065 65.4183 160.591C65.3867 159.491 65.4183 157.343 63.0672 157.052C62.882 157.042 62.6963 157.042 62.5111 157.052C62.3258 157.042 62.1401 157.042 61.9549 157.052C59.6228 157.343 59.6418 159.491 59.6038 160.591C59.5444 162.065 59.9904 163.514 60.8678 164.699C60.8939 164.87 60.8834 165.044 60.837 165.21C60.7907 165.377 60.7096 165.531 60.5991 165.664C60.4885 165.796 60.3511 165.904 60.1959 165.98C60.0407 166.055 59.8712 166.097 59.6986 166.102C59.0229 166.25 58.3626 166.462 57.7268 166.734C57.7268 166.734 60.021 168.346 61.9549 168.63C62.1386 168.662 62.3246 168.679 62.5111 168.681C62.6975 168.679 62.8835 168.662 63.0672 168.63Z" fill="#263238"/>
<path d="M62.511 156.616C60.0398 156.616 58.3082 158.329 57.9858 164.503C60.922 165.489 64.0999 165.489 67.0361 164.503C66.7138 158.329 64.9821 156.616 62.511 156.616Z" fill="#263238"/>
<path d="M93.106 183.33H74.5758C74.2405 183.33 73.919 183.197 73.682 182.96C73.4449 182.723 73.3118 182.402 73.3118 182.066C73.3118 181.731 73.4449 181.41 73.682 181.173C73.919 180.936 74.2405 180.802 74.5758 180.802H93.0807C93.416 180.802 93.7375 180.936 93.9745 181.173C94.2116 181.41 94.3447 181.731 94.3447 182.066C94.3448 182.397 94.2151 182.715 93.9835 182.951C93.7519 183.188 93.4368 183.324 93.106 183.33Z" fill="#263238"/>
<path d="M138.275 186.44H74.0198C73.9321 186.441 73.8451 186.424 73.7639 186.391C73.6826 186.358 73.6087 186.31 73.5464 186.248C73.4842 186.186 73.4347 186.113 73.401 186.032C73.3672 185.951 73.3498 185.864 73.3499 185.776C73.3499 185.599 73.4204 185.428 73.5461 185.303C73.6717 185.177 73.8421 185.106 74.0198 185.106H138.275C138.452 185.108 138.621 185.179 138.745 185.305C138.869 185.43 138.939 185.6 138.939 185.776C138.943 185.865 138.929 185.953 138.898 186.036C138.866 186.118 138.817 186.193 138.755 186.256C138.692 186.318 138.617 186.367 138.534 186.399C138.452 186.43 138.364 186.444 138.275 186.44Z" fill="#263238"/>
<path d="M67.3135 188.757C70.0356 186.109 70.0956 181.756 67.4476 179.034C64.7996 176.312 60.4462 176.252 57.7242 178.9C55.0021 181.548 54.9421 185.901 57.5901 188.623C60.2381 191.345 64.5914 191.405 67.3135 188.757Z" fill="white" stroke="#263238" stroke-width="0.632" stroke-linecap="round" stroke-linejoin="round"/>
<path d="M63.0672 190.668C65.0011 190.384 67.3016 188.772 67.3016 188.772C66.6636 188.5 66.0012 188.288 65.3234 188.14C65.1509 188.135 64.9814 188.093 64.8262 188.018C64.671 187.942 64.5335 187.834 64.423 187.702C64.3125 187.569 64.2314 187.415 64.1851 187.248C64.1387 187.082 64.1282 186.908 64.1543 186.737C65.0327 185.55 65.4787 184.098 65.4183 182.623C65.3867 181.529 65.4183 179.381 63.0672 179.09C62.8825 179.069 62.6969 179.059 62.5111 179.058C62.3252 179.059 62.1396 179.069 61.9549 179.09C59.6228 179.381 59.6418 181.529 59.6038 182.623C59.5434 184.098 59.9894 185.55 60.8678 186.737C60.8939 186.908 60.8834 187.082 60.837 187.248C60.7907 187.415 60.7096 187.569 60.5991 187.702C60.4885 187.834 60.3511 187.942 60.1959 188.018C60.0407 188.093 59.8712 188.135 59.6986 188.14C59.0229 188.288 58.3626 188.5 57.7268 188.772C57.7268 188.772 60.021 190.384 61.9549 190.668C62.139 190.697 62.3248 190.714 62.5111 190.719C62.6974 190.714 62.8831 190.697 63.0672 190.668Z" fill="#263238"/>
<path d="M68.4708 191.869C69.9717 191.869 71.1884 190.652 71.1884 189.151C71.1884 187.65 69.9717 186.434 68.4708 186.434C66.9699 186.434 65.7532 187.65 65.7532 189.151C65.7532 190.652 66.9699 191.869 68.4708 191.869Z" fill="#529C4F" stroke="#263238" stroke-width="0.632" stroke-linecap="round" stroke-linejoin="round"/>
<path d="M68.3316 188.968L68.142 187.767H68.774L68.5844 188.968L69.6715 188.424L69.8737 189.056L68.6792 189.259L69.5324 190.112L69.0079 190.504L68.4454 189.423L67.8829 190.504L67.3583 190.112L68.2115 189.259L67.0107 189.056L67.2193 188.424L68.3316 188.968Z" fill="#263238"/>
<path d="M80.466 205.4H74.5758C74.2405 205.4 73.919 205.267 73.682 205.03C73.4449 204.793 73.3118 204.471 73.3118 204.136C73.3118 203.801 73.4449 203.479 73.682 203.242C73.919 203.005 74.2405 202.872 74.5758 202.872H80.4407C80.776 202.872 81.0975 203.005 81.3345 203.242C81.5716 203.479 81.7047 203.801 81.7047 204.136C81.7048 204.467 81.5751 204.785 81.3435 205.021C81.1119 205.257 80.7968 205.393 80.466 205.4Z" fill="#263238"/>
<path d="M131.955 208.472H74.0198C73.9321 208.472 73.8451 208.456 73.7639 208.423C73.6826 208.39 73.6087 208.341 73.5464 208.279C73.4842 208.218 73.4347 208.144 73.401 208.063C73.3672 207.982 73.3498 207.896 73.3499 207.808C73.3499 207.63 73.4204 207.46 73.5461 207.334C73.6717 207.209 73.8421 207.138 74.0198 207.138H131.955C132.132 207.14 132.301 207.211 132.425 207.337C132.549 207.462 132.619 207.631 132.619 207.808C132.623 207.896 132.609 207.985 132.578 208.067C132.546 208.15 132.497 208.225 132.435 208.287C132.372 208.35 132.297 208.399 132.214 208.43C132.132 208.462 132.044 208.476 131.955 208.472Z" fill="#263238"/>
<path d="M67.3165 210.798C70.0385 208.15 70.0986 203.796 67.4505 201.074C64.8025 198.352 60.4492 198.292 57.7271 200.94C55.005 203.588 54.945 207.942 57.593 210.664C60.241 213.386 64.5944 213.446 67.3165 210.798Z" fill="white" stroke="#263238" stroke-width="0.632" stroke-linecap="round" stroke-linejoin="round"/>
<path d="M63.0672 212.706C65.0011 212.415 67.3016 210.81 67.3016 210.81C66.6636 210.538 66.0012 210.326 65.3234 210.178C65.1512 210.172 64.9822 210.129 64.8275 210.053C64.6728 209.978 64.5358 209.87 64.4255 209.738C64.3152 209.605 64.234 209.451 64.1872 209.285C64.1405 209.119 64.1293 208.945 64.1543 208.775C65.0327 207.588 65.4787 206.136 65.4183 204.661C65.3867 203.567 65.4183 201.418 63.0672 201.128C62.8825 201.107 62.6969 201.097 62.5111 201.096C62.3252 201.097 62.1396 201.107 61.9549 201.128C59.6228 201.418 59.6418 203.567 59.6038 204.661C59.5434 206.136 59.9894 207.588 60.8678 208.775C60.8928 208.945 60.8816 209.119 60.8349 209.285C60.7881 209.451 60.7069 209.605 60.5966 209.738C60.4863 209.87 60.3493 209.978 60.1946 210.053C60.0399 210.129 59.8709 210.172 59.6986 210.178C59.0229 210.326 58.3626 210.537 57.7268 210.81C57.7268 210.81 60.021 212.415 61.9549 212.706C62.1391 212.733 62.3249 212.747 62.5111 212.75C62.6972 212.748 62.883 212.733 63.0672 212.706Z" fill="#263238"/>
<path d="M93.106 227.406H74.5758C74.2405 227.406 73.919 227.273 73.682 227.036C73.4449 226.799 73.3118 226.478 73.3118 226.142C73.3118 225.807 73.4449 225.486 73.682 225.249C73.919 225.011 74.2405 224.878 74.5758 224.878H93.0807C93.416 224.878 93.7375 225.011 93.9745 225.249C94.2116 225.486 94.3447 225.807 94.3447 226.142C94.3448 226.473 94.2151 226.791 93.9835 227.027C93.7519 227.264 93.4368 227.4 93.106 227.406Z" fill="#263238"/>
<path d="M69.3871 227.912C69.3877 228.289 69.356 228.665 69.2923 229.037H55.7296C55.6659 228.665 55.6341 228.289 55.6348 227.912C55.6348 226.088 56.3592 224.339 57.6488 223.05C58.9383 221.76 60.6873 221.036 62.5109 221.036C64.3346 221.036 66.0836 221.76 67.3731 223.05C68.6626 224.339 69.3871 226.088 69.3871 227.912Z" fill="white" stroke="#263238" stroke-width="0.632" stroke-linecap="round" stroke-linejoin="round"/>
<path d="M65.4183 226.692C65.448 227.488 65.3302 228.283 65.0707 229.037H59.9515C59.692 228.283 59.5741 227.488 59.6039 226.692C59.6418 225.599 59.6039 223.45 61.9549 223.159C62.3245 223.117 62.6977 223.117 63.0672 223.159C65.4056 223.45 65.3867 225.624 65.4183 226.692Z" fill="#263238"/>
<path d="M140.652 225.675C145.667 225.675 149.734 221.608 149.734 216.593C149.734 211.577 145.667 207.511 140.652 207.511C135.636 207.511 131.57 211.577 131.57 216.593C131.57 221.608 135.636 225.675 140.652 225.675Z" fill="#529C4F" stroke="#263238" stroke-width="0.632" stroke-linecap="round" stroke-linejoin="round"/>
<path d="M144.62 213.849L143.4 212.629L137.912 218.117L139.132 219.337L144.62 213.849Z" fill="#263238"/>
<path d="M137.359 218.666L136.689 220.555L138.578 219.886L137.359 218.666Z" fill="#263238"/>
<path d="M175.747 84.176H207.214C208.303 84.176 209.348 84.6088 210.119 85.3792C210.889 86.1496 211.322 87.1945 211.322 88.284V107.029C211.323 107.569 211.217 108.104 211.011 108.603C210.805 109.102 210.503 109.556 210.121 109.938C209.739 110.32 209.286 110.623 208.787 110.83C208.289 111.037 207.754 111.143 207.214 111.143H203.289L206.917 118.02L198.537 111.143H175.747C175.207 111.143 174.672 111.037 174.173 110.83C173.674 110.623 173.221 110.32 172.84 109.938C172.458 109.556 172.156 109.102 171.95 108.603C171.743 108.104 171.638 107.569 171.639 107.029V88.284C171.639 87.1945 172.071 86.1496 172.842 85.3792C173.612 84.6088 174.657 84.176 175.747 84.176Z" stroke="#263238" stroke-width="0.632" stroke-linecap="round" stroke-linejoin="round"/>
<g opacity="0.5">
<path d="M177.434 91.7537H205.533C205.819 91.7537 206.051 91.5216 206.051 91.2354V91.0079C206.051 90.7217 205.819 90.4897 205.533 90.4897H177.434C177.148 90.4897 176.916 90.7217 176.916 91.0079V91.2354C176.916 91.5216 177.148 91.7537 177.434 91.7537Z" fill="#263238"/>
<path d="M177.434 96.0133H205.533C205.819 96.0133 206.051 95.7813 206.051 95.4951V95.2675C206.051 94.9813 205.819 94.7493 205.533 94.7493H177.434C177.148 94.7493 176.916 94.9813 176.916 95.2675V95.4951C176.916 95.7813 177.148 96.0133 177.434 96.0133Z" fill="#263238"/>
<path d="M177.434 100.273H205.533C205.819 100.273 206.051 100.041 206.051 99.7548V99.5273C206.051 99.2411 205.819 99.0091 205.533 99.0091H177.434C177.148 99.0091 176.916 99.2411 176.916 99.5273V99.7548C176.916 100.041 177.148 100.273 177.434 100.273Z" fill="#263238"/>
<path d="M190.706 104.539H205.526C205.812 104.539 206.044 104.307 206.044 104.021V103.793C206.044 103.507 205.812 103.275 205.526 103.275H190.706C190.42 103.275 190.188 103.507 190.188 103.793V104.021C190.188 104.307 190.42 104.539 190.706 104.539Z" fill="#263238"/>
</g>
<path d="M215.019 206.215C215.018 206.228 215.018 206.241 215.019 206.253C214.716 206.885 210.342 216.233 205.014 225.213C203.618 227.571 202.158 229.896 200.685 232.039C197.481 236.703 194.233 240.476 191.534 241.652C182.686 245.5 187.742 215.341 187.742 215.341C190.969 211.5 193.745 207.302 196.015 202.828C197.07 200.742 198.296 198.322 199.579 195.876C200.565 194.011 201.576 192.147 202.569 190.422C204.812 186.503 206.904 183.343 208.174 182.724C209.565 182.041 211.486 189.088 212.94 195.642C214.122 201.102 215.019 206.215 215.019 206.215Z" fill="white" stroke="#263238" stroke-width="0.632" stroke-linecap="round" stroke-linejoin="round"/>
<path d="M215.019 206.215C215.018 206.228 215.018 206.241 215.019 206.253C214.716 206.885 210.342 216.232 205.014 225.213C206.62 210.86 205.116 201.26 205.116 201.26C201.696 196.091 199.554 195.895 199.554 195.895C200.54 194.03 201.551 192.166 202.543 190.44L207.068 186.212L212.914 195.661C214.122 201.102 215.019 206.215 215.019 206.215Z" fill="#263238"/>
<path d="M255.796 109.696C263.784 115.479 270.774 135.905 268.107 149.177C265.44 162.449 279.161 166.241 279.11 187.192C279.11 193.032 261.022 216.77 240.021 204.104C219.02 191.439 213.186 185.208 215.183 172.504C217.18 159.801 217.269 151.446 213.477 140.784C209.685 130.123 241.304 99.224 255.796 109.696Z" fill="#263238"/>
<path d="M286.523 199.282L282.062 202.309C280.899 209.633 278.873 216.793 276.026 223.639C270.407 236.829 265.434 244.691 263.696 247.289C263.266 247.921 263.032 248.237 263.032 248.237L267.696 265.724C267.696 265.724 236.57 298.089 202.24 293.419L204.534 275.091L207.625 250.443L208.629 242.435C208.629 242.435 208.206 236.69 207.53 229.618C207.068 224.745 206.487 219.241 205.83 214.551C205.802 214.342 205.792 214.13 205.798 213.919C205.849 210.962 208.168 204.743 208.168 204.743C206.209 201.64 204.376 198.783 202.866 196.527C200.868 193.499 199.548 191.553 199.548 191.553C199.548 191.553 206.5 183.008 206.891 182.035C209.091 176.277 216.776 177.352 216.776 177.352C217.35 176.796 218.068 176.411 218.849 176.239C222.502 175.323 232.886 182.604 238.555 182.661C244.224 182.717 272.051 175.222 272.051 175.222L274.882 176.239C274.882 176.239 278.718 175.784 281.714 181.333C283.136 184.019 286.523 199.282 286.523 199.282Z" fill="#529C4F"/>
<path opacity="0.3" d="M236.557 271.356C236.557 271.356 217.218 277.884 204.502 275.097L207.593 250.449C210.348 253.186 226.325 268.6 236.557 271.356Z" fill="black" fill-opacity="0.7"/>
<path opacity="0.3" d="M208.136 204.768C206.177 201.665 204.344 198.808 202.834 196.552C204.149 193.392 206.101 190.466 208.806 190.637C208.806 190.637 206.917 199.029 208.136 204.768Z" fill="black" fill-opacity="0.7"/>
<path opacity="0.3" d="M270.856 199.282C267.387 200.433 259.524 203.915 259.524 203.915L258.071 202.227L263.664 194.214C263.664 194.214 259.727 195.806 258.071 197.81C256.415 199.813 255.979 204.281 255.916 204.262C255.853 204.243 254.468 199.56 254.468 199.56C253.998 201.51 253.69 203.495 253.546 205.495C253.362 207.612 255.688 211.056 257.704 213.616L254.19 232.317L240.792 224.17L234.472 220.341C233.919 220.049 233.385 219.724 232.873 219.367C232.14 218.773 231.66 218.002 230.806 217.471C229.831 216.924 228.779 216.53 227.684 216.302C223.684 215.371 219.526 215.338 215.512 216.207C213.818 216.574 212.08 217.098 210.399 216.7C208.718 216.302 207.277 214.956 205.798 213.945C205.792 214.156 205.802 214.367 205.83 214.577C206.462 219.266 207.094 224.771 207.53 229.644H208.25C208.717 229.618 209.185 229.656 209.641 229.757C210.608 230.023 212.529 234.737 213.193 235.483C218.04 240.893 226.149 250.019 232.039 254.285C230.863 251.125 224.714 240.065 224.828 236.589C226.149 237.032 227.179 238.049 228.24 238.953C231.438 241.696 235.256 243.604 239.022 245.488L247.321 249.64C249.849 250.904 253.179 252.882 256.086 252.105C258.469 251.473 261.471 249.078 263.373 247.567L263.689 247.314C265.427 244.717 270.401 236.855 276.02 223.665C278.867 216.818 280.893 209.658 282.055 202.335L286.517 199.308C286.517 199.308 274.326 198.132 270.856 199.282Z" fill="black" fill-opacity="0.7"/>
<path d="M202.24 293.419L208.629 242.467C208.629 242.467 207.429 226.085 205.83 214.583C205.469 212.004 208.168 204.768 208.168 204.768C203.573 197.5 199.548 191.578 199.548 191.578C199.548 191.578 206.5 183.034 206.891 182.06C209.091 176.303 216.776 177.377 216.776 177.377C217.35 176.821 218.068 176.436 218.849 176.265C222.502 175.348 232.886 182.629 238.555 182.686C244.224 182.743 272.051 175.247 272.051 175.247L274.882 176.265C274.882 176.265 278.718 175.81 281.714 181.359C283.155 184.019 286.549 199.282 286.549 199.282L282.087 202.31C280.925 209.633 278.899 216.793 276.051 223.64C269.049 240.072 263.051 248.25 263.051 248.25L267.715 265.737" stroke="#263238" stroke-width="0.632" stroke-linecap="round" stroke-linejoin="round"/>
<path d="M264.397 193.247C264.397 193.247 256.478 203.504 256.674 205.4C256.87 207.296 260.536 209.249 260.536 209.249" stroke="#263238" stroke-width="0.632" stroke-linecap="round" stroke-linejoin="round"/>
<path d="M254.19 197.361C254.573 200.025 254.794 202.709 254.854 205.4C254.854 208.914 264.397 214.747 264.397 214.747" stroke="#263238" stroke-width="0.632" stroke-linecap="round" stroke-linejoin="round"/>
<path d="M208.137 204.768C208.137 204.768 207.473 191.243 209.578 188.911" stroke="#263238" stroke-width="0.632" stroke-linecap="round" stroke-linejoin="round"/>
<path d="M205.798 193.91C205.798 193.91 206.885 200.913 208.035 202.246" stroke="#263238" stroke-width="0.632" stroke-linecap="round" stroke-linejoin="round"/>
<path d="M241.354 199.282C241.354 199.282 227.684 208.08 215.019 209.249" stroke="#263238" stroke-width="0.632" stroke-linecap="round" stroke-linejoin="round"/>
<path d="M215.019 237.752C215.019 237.752 230.351 256.251 240.356 258.753" stroke="#263238" stroke-width="0.632" stroke-linecap="round" stroke-linejoin="round"/>
<path d="M263.026 248.25C263.026 248.25 259.543 245.722 260.536 244.243" stroke="#263238" stroke-width="0.632" stroke-linecap="round" stroke-linejoin="round"/>
<path d="M254.19 263.291C254.19 263.291 232.437 275.419 221.326 274.421" stroke="#263238" stroke-width="0.632" stroke-linecap="round" stroke-linejoin="round"/>
<path d="M195.819 224.411C192.981 213.983 188.336 210.582 185.271 199.415C184.361 196.11 181.662 186.029 181.662 186.029C181.662 186.029 185.106 175.285 178.224 169.167C178.224 169.167 176.328 169.167 173.098 176.606C171.749 179.855 171.4 183.433 172.094 186.882C172.094 186.882 174.236 199.984 174.704 203.504C175.829 211.992 178.268 226.205 181.656 233.341C185.29 240.969 189.12 242.675 191.989 241.102" fill="white"/>
<path d="M195.819 224.411C192.981 213.983 188.336 210.582 185.271 199.415C184.361 196.11 181.662 186.029 181.662 186.029C181.662 186.029 185.106 175.285 178.224 169.167C178.224 169.167 176.328 169.167 173.098 176.606C171.749 179.855 171.4 183.433 172.094 186.882C172.094 186.882 174.236 199.984 174.704 203.504C175.829 211.992 178.268 226.205 181.656 233.341C185.29 240.969 189.12 242.675 191.989 241.102" stroke="#263238" stroke-width="0.632" stroke-linecap="round" stroke-linejoin="round"/>
<path d="M182.863 183.741L190.232 186.175C191.009 186.377 192.539 185.081 192.469 184.279L190.263 158.632C190.221 158.127 190.022 157.647 189.695 157.26C189.367 156.873 188.928 156.597 188.437 156.471L180.303 154.701C179.526 154.505 177.573 155.434 177.642 156.23L181.03 181.58C181.073 182.086 181.273 182.566 181.601 182.953C181.93 183.34 182.371 183.616 182.863 183.741Z" fill="#529C4F"/>
<mask id="mask0_72_249" style="mask-type:luminance" maskUnits="userSpaceOnUse" x="177" y="154" width="16" height="33">
<path d="M182.863 183.741L190.232 186.175C191.009 186.377 192.539 185.081 192.469 184.279L190.263 158.632C190.221 158.127 190.022 157.647 189.695 157.26C189.367 156.873 188.928 156.597 188.437 156.471L180.303 154.701C179.526 154.505 177.573 155.434 177.642 156.23L181.03 181.58C181.073 182.086 181.273 182.566 181.601 182.953C181.93 183.34 182.371 183.616 182.863 183.741Z" fill="white"/>
</mask>
<g mask="url(#mask0_72_249)">
<path opacity="0.3" d="M182.863 183.741L190.232 186.175C191.009 186.377 192.539 185.081 192.469 184.279L190.263 158.632C190.221 158.127 190.022 157.647 189.695 157.26C189.367 156.873 188.928 156.597 188.437 156.471L180.303 154.701C179.526 154.505 177.573 155.434 177.642 156.23L181.03 181.58C181.073 182.086 181.273 182.566 181.601 182.953C181.93 183.34 182.371 183.616 182.863 183.741Z" fill="black" fill-opacity="0.7"/>
</g>
<path d="M182.863 183.741L190.232 186.175C191.009 186.377 192.539 185.081 192.469 184.279L190.263 158.632C190.221 158.127 190.022 157.647 189.695 157.26C189.367 156.873 188.928 156.597 188.437 156.471L180.303 154.701C179.526 154.505 177.573 155.434 177.642 156.23L181.03 181.58C181.073 182.086 181.273 182.566 181.601 182.953C181.93 183.34 182.371 183.616 182.863 183.741Z" stroke="#263238" stroke-width="0.632" stroke-linecap="round" stroke-linejoin="round"/>
<path d="M181.649 184.373L189.783 186.137C189.963 186.184 190.151 186.187 190.332 186.147C190.513 186.106 190.682 186.022 190.824 185.903C190.966 185.783 191.077 185.631 191.148 185.459C191.218 185.288 191.247 185.102 191.23 184.917L189.056 159.264C189.013 158.758 188.813 158.278 188.485 157.891C188.157 157.503 187.716 157.228 187.224 157.103L179.096 155.333C178.916 155.287 178.728 155.284 178.547 155.326C178.366 155.368 178.197 155.452 178.056 155.572C177.914 155.692 177.803 155.844 177.732 156.016C177.662 156.188 177.633 156.374 177.649 156.559L179.823 182.212C179.866 182.717 180.065 183.196 180.392 183.584C180.719 183.971 181.158 184.247 181.649 184.373Z" fill="#529C4F" stroke="#263238" stroke-width="0.632" stroke-linecap="round" stroke-linejoin="round"/>
<path opacity="0.3" d="M186.162 164.01L187.47 164.295C187.499 164.302 187.529 164.302 187.558 164.295C187.587 164.288 187.614 164.275 187.636 164.256C187.659 164.237 187.677 164.213 187.689 164.185C187.701 164.158 187.706 164.128 187.704 164.099L187.356 159.959C187.349 159.878 187.316 159.801 187.263 159.739C187.209 159.676 187.138 159.632 187.059 159.612L185.745 159.327C185.716 159.32 185.686 159.32 185.657 159.327C185.628 159.334 185.601 159.347 185.578 159.366C185.556 159.385 185.538 159.409 185.526 159.437C185.514 159.464 185.509 159.494 185.511 159.523L185.865 163.663C185.873 163.744 185.905 163.821 185.958 163.883C186.012 163.946 186.083 163.99 186.162 164.01Z" fill="black" fill-opacity="0.7"/>
<path d="M174.723 176.865C174.407 173.269 177.68 167.872 179.861 167.872C182.041 167.872 188.665 172.978 188.665 172.978C191.231 174.836 189.96 176.606 189.96 176.606C191.471 177.605 191.856 178.957 191.193 179.583C190.529 180.208 188.311 179.583 188.311 179.583C188.311 179.583 190.51 181.188 189.96 181.978C188.665 183.842 184.405 181.384 184.405 181.384C184.405 181.384 186.876 183.015 186.737 183.324C185.802 185.359 181.763 182.989 181.763 182.989L178.925 184.443C178.928 184.778 178.861 185.109 178.73 185.417C178.598 185.724 178.404 186.001 178.16 186.231C177.916 186.46 177.627 186.636 177.312 186.748C176.997 186.86 176.662 186.906 176.328 186.882" fill="white"/>
<path d="M174.723 176.865C174.407 173.269 177.68 167.872 179.861 167.872C182.041 167.872 188.665 172.978 188.665 172.978C191.231 174.836 189.96 176.606 189.96 176.606C191.471 177.605 191.856 178.957 191.193 179.583C190.529 180.208 188.311 179.583 188.311 179.583C188.311 179.583 190.51 181.188 189.96 181.978C188.665 183.842 184.405 181.384 184.405 181.384C184.405 181.384 186.876 183.015 186.737 183.324C185.802 185.359 181.763 182.989 181.763 182.989L178.925 184.443C178.928 184.778 178.861 185.109 178.73 185.417C178.598 185.724 178.404 186.001 178.16 186.231C177.916 186.46 177.627 186.636 177.312 186.748C176.997 186.86 176.662 186.906 176.328 186.882" stroke="#263238" stroke-width="0.632" stroke-linecap="round" stroke-linejoin="round"/>
<path d="M189.96 176.606C189.96 176.606 183.754 172.599 182.97 172.492C182.187 172.384 179.311 171.759 179.311 171.759" fill="white"/>
<path d="M189.96 176.606C189.96 176.606 183.754 172.599 182.97 172.492C182.187 172.384 179.311 171.759 179.311 171.759" stroke="#263238" stroke-width="0.632" stroke-linecap="round" stroke-linejoin="round"/>
<path d="M188.336 179.583C188.336 179.583 183.28 176.979 182.37 176.979C180.975 176.826 179.59 176.587 178.224 176.265" fill="white"/>
<path d="M188.336 179.583C188.336 179.583 183.28 176.979 182.37 176.979C180.975 176.826 179.59 176.587 178.224 176.265" stroke="#263238" stroke-width="0.632" stroke-linecap="round" stroke-linejoin="round"/>
<path d="M184.405 181.384C183.816 180.965 183.192 180.597 182.541 180.284C181.337 180.198 180.129 180.198 178.926 180.284" fill="white"/>
<path d="M184.405 181.384C183.816 180.965 183.192 180.597 182.541 180.284C181.337 180.198 180.129 180.198 178.926 180.284" stroke="#263238" stroke-width="0.632" stroke-linecap="round" stroke-linejoin="round"/>
<path d="M247.605 221.75C247.605 221.75 251.523 219.544 255.025 211.315C258.526 203.087 259.525 203.915 259.525 203.915C259.525 203.915 267.191 200.154 270.856 199.282C274.522 198.41 281.189 199.282 281.189 199.282C281.189 199.282 275.501 215.784 269.693 226.515C263.885 237.246 259.209 243.579 256.105 244.211C253.002 244.843 247.605 221.75 247.605 221.75Z" fill="white" stroke="#263238" stroke-width="0.632" stroke-linecap="round" stroke-linejoin="round"/>
<path d="M270.357 176.328C270.357 176.328 242.46 191.186 234.396 191.104C226.332 191.022 221.307 177.2 221.307 177.2C221.307 177.2 236.223 176.865 234.491 169.736C234.491 169.616 234.434 169.483 234.396 169.357C233.682 166.867 230.945 162.506 229.928 160.939C229.688 160.566 229.542 160.351 229.542 160.351L251.618 143.868C250.354 160.534 252.794 167.84 254.291 170.583C256.864 175.279 270.357 176.328 270.357 176.328Z" fill="white" stroke="#263238" stroke-width="0.632" stroke-linecap="round" stroke-linejoin="round"/>
<path d="M245.355 153.209C245.355 153.209 240.754 166.216 234.472 169.736C234.472 169.616 234.415 169.483 234.377 169.357C233.663 166.867 230.926 162.506 229.909 160.939L245.355 153.209Z" fill="#263238"/>
<path d="M235.793 187.142C235.793 187.142 237.354 184.127 239.686 183.773C242.018 183.419 248.439 183.356 260.315 181.384" stroke="#263238" stroke-width="0.632" stroke-linecap="round" stroke-linejoin="round"/>
<path d="M232.209 187.142C232.209 187.142 231.211 184.797 230.945 183.773C230.68 182.749 224.474 181.46 222.413 179.766" stroke="#263238" stroke-width="0.632" stroke-linecap="round" stroke-linejoin="round"/>
<path d="M215.329 116.433C211.24 120.889 210.02 135.431 212.061 141.713C212.061 141.713 222.306 143.18 224.701 141.334C227.097 139.489 215.329 116.433 215.329 116.433Z" fill="#263238"/>
<path d="M253.856 145.803C254.841 141.448 260.068 120.339 247.763 110.998C235.458 101.657 220.448 114.114 218.343 117.053C209.856 128.909 213.616 138.332 215.183 144.014C216.751 149.696 215.98 156.578 223.918 166.039C227.255 170.014 233.259 167.897 239.174 163.783C242.72 161.318 247.713 156.983 247.839 152.805" fill="white"/>
<path d="M253.856 145.803C254.841 141.448 260.068 120.339 247.763 110.998C235.458 101.657 220.448 114.114 218.343 117.053C209.856 128.909 213.616 138.332 215.183 144.014C216.751 149.696 215.98 156.578 223.918 166.039C227.255 170.014 233.259 167.897 239.174 163.783C242.72 161.318 247.713 156.983 247.839 152.805" stroke="#263238" stroke-width="0.632" stroke-linecap="round" stroke-linejoin="round"/>
<path d="M225.725 136.55C225.725 136.55 232.393 135.362 236.166 137.725" stroke="#263238" stroke-width="0.632" stroke-linecap="round" stroke-linejoin="round"/>
<path d="M232.778 142.996C232.942 144.02 232.582 144.93 231.969 145.031C231.356 145.132 230.705 144.399 230.553 143.363C230.402 142.326 230.749 141.429 231.362 141.328C231.975 141.227 232.608 141.972 232.778 142.996Z" fill="#263238"/>
<path d="M219.456 142.996C219.62 144.02 219.26 144.93 218.647 145.031C218.034 145.132 217.383 144.399 217.231 143.363C217.079 142.326 217.427 141.429 218.04 141.328C218.653 141.227 219.304 141.972 219.456 142.996Z" fill="#263238"/>
<path d="M218.343 136.613C218.343 136.613 214.665 135.299 213.477 136.986" stroke="#263238" stroke-width="0.632" stroke-linecap="round" stroke-linejoin="round"/>
<path d="M220.663 142.491C221.042 143.932 218.135 150.429 218.343 150.991C218.552 151.554 219.98 152.552 222.54 152.805" stroke="#263238" stroke-width="0.632" stroke-linecap="round" stroke-linejoin="round"/>
<path d="M223.804 157.273C223.804 157.273 229.138 157.273 232.21 155.105" stroke="#263238" stroke-width="0.632" stroke-linecap="round" stroke-linejoin="round"/>
<path d="M216.852 113.299C216.852 113.299 211.227 118.525 214.855 128.802C215.656 130.897 216.839 132.826 218.343 134.49C222.104 132.372 223.981 135.678 226.231 134.597C228.481 133.516 232.064 135.811 234.396 135.355C235.543 135.1 236.733 135.111 237.875 135.388C239.017 135.666 240.08 136.201 240.982 136.954C242.732 138.522 242.732 141.954 245.355 143.609C245.355 143.609 246.885 138.244 250.108 139.021C253.331 139.798 250.481 149.133 250.481 149.133C254.52 144.209 257.038 138.217 257.73 131.886C258.994 121.142 254.747 111.757 247.618 109.766C247.618 109.766 245.241 105.14 237.114 105.885C228.986 106.631 221.617 106.176 216.852 113.299Z" fill="#263238"/>
<path d="M247.605 140.43C247.605 140.43 250.607 133.074 254.98 136.126C259.354 139.179 254.108 148.552 251.978 150.928C249.849 153.304 249.229 150.681 248.983 149.929" fill="white"/>
<path d="M247.605 140.43C247.605 140.43 250.607 133.074 254.98 136.126C259.354 139.179 254.108 148.552 251.978 150.928C249.849 153.304 249.229 150.681 248.983 149.929" stroke="#263238" stroke-width="0.632" stroke-linecap="round" stroke-linejoin="round"/>
<g opacity="0.2">
<path d="M218.824 118.645C218.95 116.804 219.502 115.017 220.436 113.425" stroke="white" stroke-width="0.632" stroke-linecap="round" stroke-linejoin="round"/>
<path d="M223.804 131.304C221.099 128.283 219.039 124.22 218.817 120.137" stroke="white" stroke-width="0.632" stroke-linecap="round" stroke-linejoin="round"/>
<path d="M229.542 126.223C231.069 128.72 233.224 130.773 235.793 132.176" stroke="white" stroke-width="0.632" stroke-linecap="round" stroke-linejoin="round"/>
<path d="M228.007 113.425C225.934 116.756 227.128 121.534 228.746 124.801" stroke="white" stroke-width="0.632" stroke-linecap="round" stroke-linejoin="round"/>
<path d="M249.071 132.366C250.638 133.179 252.283 133.829 253.982 134.306" stroke="white" stroke-width="0.632" stroke-linecap="round" stroke-linejoin="round"/>
<path d="M234.396 117.805C237.556 123.507 242.159 128.278 247.744 131.639" stroke="white" stroke-width="0.632" stroke-linecap="round" stroke-linejoin="round"/>
</g>
<path d="M202.954 172.625C202.954 172.625 201.058 172.624 200.888 174.009C200.717 175.393 203.542 177.2 203.542 177.2" fill="white"/>
<path d="M202.954 172.625C202.954 172.625 201.058 172.624 200.888 174.009C200.717 175.393 203.542 177.2 203.542 177.2" stroke="#263238" stroke-width="0.632" stroke-linecap="round" stroke-linejoin="round"/>
<path d="M256.213 222.9C251.94 216.384 245.911 212.308 240.52 205.078C236.058 199.081 231.941 192.835 228.19 186.371L222.47 175.627C222.47 175.627 215.468 167.183 212.636 166.147C209.805 165.11 194.308 164.617 194.308 164.617C194.308 164.617 193.676 166.298 196.072 167.145C198.467 167.992 205.804 168.681 205.804 168.681C205.804 168.681 203.643 169.61 203.144 170.375C202.644 171.139 203.144 177.421 204.142 178.698C205.141 179.975 208.977 181.138 208.977 181.138C208.977 181.138 209.483 185.562 213.23 187.755C216.978 189.948 218.811 189.973 218.811 189.973C218.811 189.973 222.338 195.964 223.81 200.243C226.97 209.363 234.94 230.099 240.697 237.575C247.51 246.423 256.339 246.764 259.531 241.133" fill="white"/>
<path d="M256.213 222.9C251.94 216.384 245.911 212.308 240.52 205.078C236.058 199.081 231.941 192.835 228.19 186.371L222.47 175.627C222.47 175.627 215.468 167.183 212.636 166.147C209.805 165.11 194.308 164.617 194.308 164.617C194.308 164.617 193.676 166.298 196.072 167.145C198.467 167.992 205.804 168.681 205.804 168.681C205.804 168.681 203.643 169.61 203.144 170.375C202.644 171.139 203.144 177.421 204.142 178.698C205.141 179.975 208.977 181.138 208.977 181.138C208.977 181.138 209.483 185.562 213.23 187.755C216.978 189.948 218.811 189.973 218.811 189.973C218.811 189.973 222.338 195.964 223.81 200.243C226.97 209.363 234.94 230.099 240.697 237.575C247.51 246.423 256.339 246.764 259.531 241.133" stroke="#263238" stroke-width="0.632" stroke-linecap="round" stroke-linejoin="round"/>
<path d="M212.352 172.018C212.352 172.018 206.917 172.65 206.228 173.143C205.539 173.636 205.868 177.522 206.228 178.881C206.289 179.235 206.427 179.571 206.633 179.866C206.838 180.161 207.105 180.407 207.416 180.588" stroke="#263238" stroke-width="0.632" stroke-linecap="round" stroke-linejoin="round"/>
<path d="M210.108 168.807C210.108 168.807 204.762 170.141 204.42 170.83C203.923 172.71 203.839 174.677 204.174 176.593C204.61 178.704 204.736 179.368 205.552 179.753" stroke="#263238" stroke-width="0.632" stroke-linecap="round" stroke-linejoin="round"/>
<path d="M205.798 168.687C206.559 168.369 207.34 168.103 208.136 167.891" stroke="#263238" stroke-width="0.632" stroke-linecap="round" stroke-linejoin="round"/>
<path d="M209.059 176.328C209.516 176.85 210.078 177.269 210.709 177.558C211.34 177.847 212.025 177.998 212.719 178.003C212.719 178.003 211.549 182.503 213.635 185.422" stroke="#263238" stroke-width="0.632" stroke-linecap="round" stroke-linejoin="round"/>
<path d="M210.108 177.2C210.108 177.2 208.901 178.18 209.059 178.704" stroke="#263238" stroke-width="0.632" stroke-linecap="round" stroke-linejoin="round"/>
<path d="M259.524 203.915C259.524 203.915 270.268 199.213 271.823 198.897C273.378 198.581 285.026 199.156 285.026 199.156C283.584 200.486 281.923 201.555 280.115 202.316C280.115 202.316 279.856 200.173 276.955 199.927C274.054 199.68 259.524 203.915 259.524 203.915Z" fill="#263238"/>
</svg>
