<svg width="20" height="20" viewBox="0 0 20 20" fill="none" xmlns="http://www.w3.org/2000/svg">
    <path
        d="M12.2926 9.38873C12.1413 9.38586 11.9909 9.41394 11.8508 9.47126C11.7107 9.52858 11.5837 9.61393 11.4778 9.72207C11.3699 9.82683 11.2844 9.95241 11.2265 10.0912C11.1685 10.23 11.1394 10.3791 11.1408 10.5295C11.1393 10.6807 11.1688 10.8307 11.2274 10.9702C11.286 11.1097 11.3725 11.2357 11.4815 11.3406C11.6429 11.5011 11.848 11.6103 12.0712 11.6546C12.2944 11.699 12.5258 11.6764 12.7362 11.5898C12.9467 11.5032 13.1268 11.3563 13.2542 11.1677C13.3815 10.9791 13.4503 10.757 13.4519 10.5295C13.4528 10.3788 13.423 10.2296 13.3645 10.0908C13.3059 9.95196 13.2197 9.82652 13.1111 9.72207C13.0048 9.61347 12.8772 9.52785 12.7364 9.47052C12.5957 9.41318 12.4446 9.38535 12.2926 9.38873ZM16.4148 8.57022C16.339 8.06176 16.1465 7.57775 15.8525 7.15602C15.5586 6.7343 15.171 6.38628 14.7202 6.13918C14.2694 5.89208 13.7676 5.7526 13.2539 5.73164C12.7403 5.71068 12.2287 5.80881 11.7593 6.01836C11.2193 5.2218 10.4414 4.61634 9.53663 4.28853C8.63187 3.96072 7.64664 3.92735 6.72177 4.19318C5.79691 4.45901 4.97976 5.01044 4.38716 5.76863C3.79455 6.52683 3.45682 7.45297 3.42224 8.41466C2.59727 8.79402 1.92741 9.44494 1.52456 10.2587C1.1217 11.0725 1.01024 11.9998 1.20878 12.8859C1.40731 13.7719 1.90384 14.563 2.61542 15.1271C3.327 15.6911 4.21056 15.994 5.11854 15.985H15.0185C15.9138 15.9875 16.7817 15.6765 17.4717 15.106C18.1617 14.5356 18.6302 13.7416 18.7961 12.8618C18.9619 11.982 18.8146 11.0719 18.3796 10.2894C17.9447 9.50687 17.2496 8.90127 16.4148 8.57762V8.57022ZM6.10002 11.3406C6.20597 11.4487 6.33289 11.5341 6.47301 11.5914C6.61312 11.6487 6.76348 11.6768 6.91484 11.6739C7.06664 11.676 7.21732 11.6476 7.35793 11.5903C7.49853 11.5331 7.6262 11.4481 7.73336 11.3406C7.74696 11.3229 7.76479 11.3089 7.78521 11.2998C7.82054 11.2396 7.86281 11.1836 7.91113 11.1332C8.01883 11.027 8.15539 10.9549 8.30378 10.9258C8.45217 10.8968 8.60584 10.912 8.74564 10.9697C8.88543 11.0273 9.00517 11.1248 9.08992 11.2501C9.17467 11.3753 9.22069 11.5227 9.22224 11.6739C9.22623 11.7758 9.20847 11.8774 9.17015 11.9719C9.13184 12.0664 9.07384 12.1517 9.00002 12.2221C8.95239 12.2905 8.89778 12.3538 8.83706 12.411C8.58885 12.6642 8.2918 12.8643 7.96393 12.9993C7.63605 13.1342 7.28418 13.2012 6.92965 13.1961C6.57553 13.2022 6.22392 13.1357 5.8965 13.0007C5.56908 12.8656 5.27281 12.6649 5.02595 12.411C4.77601 12.164 4.57757 11.8698 4.44213 11.5456C4.3067 11.2214 4.23696 10.8735 4.23696 10.5221C4.23696 10.1707 4.3067 9.82278 4.44213 9.49854C4.57757 9.1743 4.77601 8.88017 5.02595 8.63318C5.27391 8.38093 5.57047 8.18161 5.89769 8.04729C6.22491 7.91296 6.57598 7.84642 6.92965 7.8517C7.28383 7.84678 7.63535 7.91346 7.96312 8.04775C8.29089 8.18204 8.58815 8.38117 8.83706 8.63318C8.89582 8.69113 8.94913 8.75436 8.99632 8.82207H9.01484C9.08708 8.89284 9.14407 8.97766 9.18229 9.07129C9.22051 9.16493 9.23915 9.2654 9.23706 9.36651C9.24016 9.46786 9.22243 9.56877 9.18495 9.66299C9.14747 9.75721 9.09105 9.84272 9.01918 9.91425C8.94731 9.98577 8.86151 10.0418 8.76712 10.0788C8.67272 10.1158 8.57173 10.1331 8.47039 10.1295C8.36874 10.1306 8.26795 10.1108 8.17428 10.0713C8.08062 10.0318 7.99608 9.97343 7.92595 9.89985C7.8746 9.85253 7.83088 9.79756 7.79632 9.73688C7.77724 9.72908 7.7606 9.71629 7.74817 9.69985C7.64102 9.59229 7.51335 9.50736 7.37274 9.4501C7.23214 9.39284 7.08146 9.36442 6.92965 9.36651C6.77829 9.36363 6.62794 9.39172 6.48782 9.44904C6.34771 9.50636 6.22078 9.59171 6.11484 9.69985C6.00627 9.8043 5.92008 9.92973 5.8615 10.0685C5.80293 10.2073 5.77319 10.3566 5.7741 10.5073C5.76769 10.6612 5.79336 10.8147 5.84946 10.9582C5.90557 11.1016 5.9909 11.2319 6.10002 11.3406ZM14.1963 12.4184C13.6904 12.9214 13.006 13.2037 12.2926 13.2037C11.5792 13.2037 10.8948 12.9214 10.3889 12.4184C10.139 12.1714 9.94053 11.8772 9.8051 11.553C9.66966 11.2288 9.59992 10.8809 9.59992 10.5295C9.59992 10.1781 9.66966 9.83019 9.8051 9.50595C9.94053 9.18171 10.139 8.88757 10.3889 8.64059C10.8962 8.14027 11.5801 7.85977 12.2926 7.85977C13.0051 7.85977 13.689 8.14027 14.1963 8.64059C14.4472 8.88706 14.6464 9.18103 14.7824 9.50534C14.9184 9.82965 14.9885 10.1778 14.9885 10.5295C14.9885 10.8811 14.9184 11.2293 14.7824 11.5536C14.6464 11.8779 14.4472 12.1719 14.1963 12.4184ZM16.5111 13.4887C16.5511 13.4883 16.5907 13.496 16.6276 13.5112C16.6645 13.5265 16.698 13.5491 16.7259 13.5776C16.7542 13.6058 16.7766 13.6393 16.7918 13.6762C16.8071 13.713 16.815 13.7525 16.815 13.7924C16.815 13.8323 16.8071 13.8718 16.7918 13.9087C16.7766 13.9456 16.7542 13.979 16.7259 14.0073C16.698 14.0358 16.6645 14.0584 16.6276 14.0736C16.5907 14.0889 16.5511 14.0966 16.5111 14.0961H15.363C15.3224 14.0969 15.2822 14.0894 15.2446 14.0741C15.2071 14.0588 15.173 14.0361 15.1445 14.0073C15.0901 13.949 15.0598 13.8722 15.0598 13.7924C15.0598 13.7127 15.0901 13.6359 15.1445 13.5776C15.1642 13.5584 15.1866 13.5421 15.2111 13.5295L16.163 12.7369C16.1911 12.6913 16.2053 12.6385 16.2037 12.585C16.2037 12.5448 16.1958 12.505 16.1803 12.4679C16.1648 12.4309 16.1421 12.3972 16.1135 12.369C16.0849 12.3407 16.051 12.3184 16.0137 12.3034C15.9764 12.2883 15.9365 12.2808 15.8963 12.2813C15.8564 12.2809 15.8167 12.2885 15.7798 12.3038C15.7429 12.3191 15.7095 12.3417 15.6815 12.3702C15.6501 12.4147 15.6154 12.4568 15.5778 12.4961C15.5502 12.5252 15.5169 12.5482 15.4799 12.5635C15.4428 12.5788 15.403 12.5861 15.363 12.585C15.3224 12.5857 15.2822 12.5782 15.2446 12.563C15.2071 12.5477 15.173 12.525 15.1445 12.4961C15.1162 12.4681 15.0941 12.4346 15.0795 12.3976C15.0648 12.3607 15.0579 12.3211 15.0593 12.2813C15.057 12.2151 15.0794 12.1504 15.1222 12.0998C15.1557 12.0405 15.1982 11.9868 15.2482 11.9406C15.4214 11.7698 15.6549 11.6741 15.8982 11.6741C16.1414 11.6741 16.3749 11.7698 16.5482 11.9406C16.6352 12.0249 16.7039 12.1264 16.7497 12.2386C16.7956 12.3508 16.8178 12.4713 16.8148 12.5924C16.8245 12.6723 16.8162 12.7533 16.7906 12.8295C16.7649 12.9058 16.7226 12.9754 16.6667 13.0332L16.1852 13.4887H16.5111Z"
        fill="#0E846D" />
</svg>
    