<svg width="72" height="72" viewBox="0 0 72 72" fill="none" xmlns="http://www.w3.org/2000/svg">
    <path
        d="M55.1114 0.403321C54.8829 0.147335 54.5752 0.00260838 54.2538 3.49133e-05C53.9324 -0.00253855 53.6228 0.137246 53.3912 0.389548L23.2852 34.4657H20.5242C18.5705 34.4727 16.647 35.0127 14.9167 36.0399L12.7727 37.3312V34.7525C12.7727 33.9919 12.1843 33.4326 11.5125 33.4326H1.28819C0.616422 33.4326 0 33.9919 0 34.7525V70.6534C0 71.4142 0.616422 71.9996 1.28819 71.9996H11.5122C11.8365 72.0084 12.1508 71.8719 12.3867 71.6198C12.6227 71.3678 12.7613 71.0205 12.7724 70.6534V69.1932L14.9164 70.455C16.6487 71.4731 18.5724 72.003 20.5242 71.9996H38.5071C40.3876 71.9996 41.9666 70.2984 41.9666 68.1687V64.442C41.9571 63.8852 41.8415 63.3373 41.6275 62.8358C42.1504 62.4978 42.5843 62.008 42.8844 61.4169C43.1846 60.8259 43.3401 60.1549 43.335 59.4731V55.7464C43.3371 55.1007 43.1952 54.4648 42.9224 53.8978C43.4112 53.4945 43.7974 52.9523 44.0418 52.3258L71.6438 21.0725C71.8719 20.8141 72 20.4638 72 20.0986C72 19.7333 71.8719 19.383 71.6438 19.1247L55.1114 0.403321ZM10.3396 69.2448H2.43284V36.1874H10.3396V69.2448ZM54.2512 3.32511L56.8848 6.30717L56.5959 6.63429C55.9856 7.32371 55.1588 7.71089 54.2968 7.71089C53.4348 7.71089 52.608 7.32371 51.9978 6.63429L51.6633 6.25551L54.2512 3.32511ZM43.4871 42.0818C43.4768 42.3874 43.3649 42.6773 43.1737 42.8933C42.9826 43.1093 42.7264 43.2355 42.4565 43.2466H35.5449C35.2223 43.2466 34.9129 43.3917 34.6848 43.65C34.4567 43.9083 34.3285 44.2586 34.3285 44.624C34.3285 44.9893 34.4567 45.3396 34.6848 45.5979C34.9129 45.8562 35.2223 46.0013 35.5449 46.0013H40.9206C41.4596 46.0013 41.9666 46.4402 41.9666 47.0516V50.7775C41.9666 51.3878 41.4596 51.8553 40.9206 51.8553H34.4479C34.1252 51.8553 33.8158 52.0004 33.5877 52.2587C33.3596 52.517 33.2314 52.8673 33.2314 53.2327C33.2314 53.598 33.3596 53.9483 33.5877 54.2066C33.8158 54.4649 34.1252 54.61 34.4479 54.61H39.9332C40.1941 54.6174 40.442 54.7408 40.6233 54.9534C40.8046 55.166 40.9048 55.4508 40.9022 55.7464V59.4731C40.9057 59.7715 40.8065 60.0597 40.6256 60.2768C40.4448 60.4938 40.1964 60.6227 39.9332 60.6361H33.3508C33.0282 60.6361 32.7188 60.7812 32.4907 61.0396C32.2625 61.2979 32.1344 61.6482 32.1344 62.0135C32.1344 62.3788 32.2625 62.7292 32.4907 62.9875C32.7188 63.2458 33.0282 63.3909 33.3508 63.3909H38.5071C39.0461 63.3909 39.5337 63.8317 39.5337 64.442V68.1687C39.5337 68.7793 39.0461 69.2448 38.5071 69.2448H20.5242C18.9638 69.2484 17.4256 68.8253 16.0405 68.0114L12.7724 66.0868V40.437L16.0405 38.483C17.4237 37.6602 18.9618 37.2271 20.5242 37.2205H42.4565C42.7237 37.2248 42.9794 37.3447 43.171 37.5556C43.3626 37.7666 43.4757 38.0526 43.4871 38.3549V42.0818ZM42.4565 34.4657H40.5208C39.3426 32.8817 38.7097 30.8688 38.7388 28.7981C38.7529 27.0336 39.2367 25.315 40.1268 23.8667C41.0169 22.4184 42.272 21.3077 43.7283 20.6796C45.1845 20.0516 46.7742 19.9354 48.2896 20.3462C49.8051 20.757 51.1759 21.6758 52.2231 22.9825C53.2703 24.2891 53.9452 25.923 54.1596 27.6708C54.374 29.4185 54.1179 31.1988 53.4249 32.7792C52.7319 34.3596 51.6341 35.6666 50.2748 36.5296C48.9156 37.3926 47.3582 37.7713 45.8059 37.6165C45.6567 36.7331 45.2411 35.9358 44.6301 35.361C44.0191 34.7863 43.2508 34.4698 42.4565 34.4657ZM44.3994 48.105V47.0516C44.3971 46.5167 44.2963 45.9881 44.1034 45.4998C44.6525 45.1717 45.1121 44.6798 45.4322 44.0774C45.7524 43.475 45.9211 42.7849 45.9199 42.0818V40.3973C46.072 40.4115 46.3065 40.421 46.5122 40.4208C48.7498 40.4196 50.925 39.5853 52.7027 38.0465C54.4804 36.5077 55.7619 34.3498 56.3499 31.9051C56.9379 29.4604 56.7998 26.8646 55.9567 24.5176C55.1136 22.1706 53.6125 20.2025 51.6844 18.9167C49.7564 17.6308 47.5084 17.0984 45.2868 17.4015C43.0653 17.7046 40.9934 18.8264 39.3903 20.5941C37.7872 22.3618 36.7418 24.6773 36.4152 27.1839C36.0887 29.6905 36.499 32.2491 37.583 34.4657H26.7265L49.943 8.18989L50.2775 8.57556C50.8049 9.1738 51.4312 9.64851 52.1207 9.97256C52.8102 10.2966 53.5493 10.4636 54.2958 10.4641C55.0423 10.4646 55.7816 10.2985 56.4714 9.97535C57.1612 9.65219 57.788 9.17829 58.316 8.58072L58.6049 8.25359L64.3998 14.8157L64.1073 15.1622C63.0473 16.3713 62.4534 18.0064 62.4552 19.71C62.4571 21.4136 63.0547 23.047 64.1173 24.253C64.1245 24.2611 64.1325 24.269 64.1391 24.277L64.8058 24.9584L44.3994 48.105ZM66.4927 23.0108L65.8281 22.2949C65.2236 21.6029 64.8853 20.6682 64.8872 19.6949C64.8891 18.7216 65.2308 17.7886 65.8379 17.0995C65.8443 17.0923 65.8506 17.0851 65.8568 17.0777L66.1208 16.7652L69.0647 20.0986L66.4927 23.0108Z"
        fill="black" />
</svg>
    