<svg width="63" height="57" viewBox="0 0 63 57" fill="none" xmlns="http://www.w3.org/2000/svg">
    <path
        d="M32.625 56.4037C28.6425 56.4037 18.6637 53.985 10.98 51.9037C10.833 51.8694 10.6943 51.8059 10.5723 51.717C10.4503 51.628 10.3475 51.5154 10.27 51.3858C10.1924 51.2563 10.1418 51.1124 10.121 50.9629C10.1002 50.8134 10.1097 50.6612 10.149 50.5154C10.1883 50.3696 10.2565 50.2332 10.3496 50.1143C10.4427 49.9955 10.5588 49.8966 10.6909 49.8235C10.823 49.7505 10.9685 49.7047 11.1187 49.6891C11.2689 49.6735 11.4206 49.6882 11.565 49.7325C22.05 52.5562 29.7225 54.1537 32.625 54.1537C36.405 54.1537 51.21 46.0875 60.0187 38.5725C60.3398 38.3214 60.5675 37.97 60.6654 37.5744C60.7633 37.1788 60.7257 36.7617 60.5588 36.3899C60.4261 36.1436 60.2419 35.9287 60.0187 35.76C58.725 34.7925 57.4087 34.7812 55.5187 35.76C49.1881 38.8633 42.695 41.6236 36.0675 44.0287L35.6175 44.175C34.34 44.5248 33.0089 44.6354 31.6912 44.5012L23.3775 43.68C23.2298 43.6659 23.0862 43.6229 22.9551 43.5534C22.824 43.4839 22.7078 43.3893 22.6133 43.2749C22.5188 43.1605 22.4477 43.0286 22.4041 42.8867C22.3605 42.7449 22.3453 42.5958 22.3594 42.4481C22.3734 42.3003 22.4164 42.1568 22.4859 42.0257C22.5554 41.8946 22.6501 41.7784 22.7645 41.6839C22.8788 41.5893 23.0107 41.5183 23.1526 41.4747C23.2945 41.4311 23.4435 41.4159 23.5912 41.43L31.9162 42.2625C32.8882 42.3647 33.8705 42.2962 34.8188 42.06C35.049 41.8613 35.1963 41.5835 35.2317 41.2815C35.2672 40.9795 35.188 40.6752 35.01 40.4287C34.1504 39.657 33.1215 39.0983 32.0063 38.7975L31.5 38.6625C31.095 38.5162 28.6537 38.1787 26.3025 37.8412C20.6775 37.0424 12.465 35.8837 7.83 34.4662V50.4524C7.86433 51.3811 7.53599 52.2866 6.91448 52.9774C6.29297 53.6682 5.42705 54.09 4.5 54.1537H1.125C0.826631 54.1537 0.540484 54.0352 0.329505 53.8242C0.118527 53.6132 0 53.3271 0 53.0287C0 52.7303 0.118527 52.4442 0.329505 52.2332C0.540484 52.0222 0.826631 51.9037 1.125 51.9037H4.5C4.83902 51.8456 5.14349 51.6614 5.35219 51.388C5.5609 51.1146 5.65836 50.7723 5.625 50.43V32.2162C5.625 31.4175 5.1075 30.7312 4.5 30.7312H1.125C0.826631 30.7312 0.540484 30.6127 0.329505 30.4017C0.118527 30.1907 0 29.9046 0 29.6062C0 29.3078 0.118527 29.0217 0.329505 28.8107C0.540484 28.5997 0.826631 28.4812 1.125 28.4812H4.5C5.41229 28.5302 6.27099 28.9274 6.89897 29.591C7.52695 30.2546 7.87631 31.1338 7.875 32.0475C12.0825 33.555 21.1388 34.8262 26.6625 35.6137C28.5782 35.8071 30.4796 36.1228 32.355 36.5587L32.6925 36.6825C34.2534 37.0888 35.6661 37.9317 36.765 39.1125C37.2067 39.6984 37.4403 40.415 37.4287 41.1487C41.7825 39.5174 48.8025 36.4575 54.4837 33.69C57.1725 32.385 59.355 32.4637 61.3462 33.9599C61.8402 34.3217 62.2438 34.7927 62.5256 35.3363C62.8074 35.8798 62.9597 36.4812 62.9706 37.0933C62.9814 37.7054 62.8507 38.3118 62.5884 38.8651C62.3261 39.4183 61.9395 39.9034 61.4588 40.2824C53.3925 47.1674 37.6538 56.4037 32.625 56.4037ZM38.25 29.4037C35.6868 29.4037 33.1811 28.6436 31.0498 27.2195C28.9185 25.7955 27.2574 23.7714 26.2765 21.4033C25.2956 19.0351 25.039 16.4293 25.539 13.9153C26.0391 11.4013 27.2734 9.09209 29.0859 7.2796C30.8984 5.46711 33.2076 4.23279 35.7216 3.73272C38.2356 3.23266 40.8414 3.48931 43.2096 4.47022C45.5777 5.45113 47.6018 7.11225 49.0258 9.24351C50.4499 11.3748 51.21 13.8805 51.21 16.4437C51.2041 19.8791 49.8367 23.1721 47.4075 25.6012C44.9784 28.0304 41.6854 29.3978 38.25 29.4037ZM38.25 5.7787C36.1318 5.7787 34.0611 6.40683 32.2998 7.58366C30.5386 8.76049 29.1659 10.4332 28.3552 12.3902C27.5446 14.3472 27.3325 16.5006 27.7458 18.5781C28.159 20.6557 29.1791 22.564 30.6769 24.0618C32.1747 25.5596 34.083 26.5797 36.1606 26.9929C38.2381 27.4062 40.3915 27.1941 42.3485 26.3834C44.3055 25.5728 45.9782 24.2001 47.155 22.4389C48.3319 20.6776 48.96 18.6069 48.96 16.4887C48.957 13.6491 47.8277 10.9267 45.8198 8.91888C43.812 6.91101 41.0896 5.78168 38.25 5.7787ZM40.5 21.5287H36C35.1049 21.5287 34.2465 21.1731 33.6135 20.5402C32.9806 19.9073 32.625 19.0488 32.625 18.1537V14.7787C32.625 13.8836 32.9806 13.0251 33.6135 12.3922C34.2465 11.7593 35.1049 11.4037 36 11.4037H40.5C41.3951 11.4037 42.2535 11.7593 42.8865 12.3922C43.5194 13.0251 43.875 13.8836 43.875 14.7787V18.1537C43.875 19.0488 43.5194 19.9073 42.8865 20.5402C42.2535 21.1731 41.3951 21.5287 40.5 21.5287ZM36 13.6537C35.7016 13.6537 35.4155 13.7722 35.2045 13.9832C34.9935 14.1942 34.875 14.4803 34.875 14.7787V18.1537C34.875 18.4521 34.9935 18.7382 35.2045 18.9492C35.4155 19.1602 35.7016 19.2787 36 19.2787H40.5C40.7984 19.2787 41.0845 19.1602 41.2955 18.9492C41.5065 18.7382 41.625 18.4521 41.625 18.1537V14.7787C41.625 14.4803 41.5065 14.1942 41.2955 13.9832C41.0845 13.7722 40.7984 13.6537 40.5 13.6537H36ZM60.75 14.0587H60.6375L57.2625 13.7437C57.1148 13.7304 56.9711 13.6881 56.8397 13.6193C56.7083 13.5505 56.5917 13.4565 56.4967 13.3426C56.4016 13.2287 56.3299 13.0973 56.2856 12.9557C56.2414 12.8141 56.2255 12.6652 56.2388 12.5175C56.252 12.3697 56.2943 12.226 56.3631 12.0946C56.432 11.9632 56.526 11.8467 56.6399 11.7516C56.7537 11.6565 56.8852 11.5848 57.0268 11.5406C57.1684 11.4963 57.3173 11.4804 57.465 11.4937L60.84 11.8087C61.1384 11.8221 61.4192 11.9535 61.6207 12.174C61.8222 12.3945 61.9278 12.686 61.9144 12.9843C61.9009 13.2827 61.7695 13.5635 61.5491 13.765C61.3286 13.9665 61.0371 14.0721 60.7388 14.0587H60.75ZM54.8662 9.7162C54.6134 9.71723 54.3675 9.63303 54.1684 9.47719C53.9692 9.32135 53.8284 9.10296 53.7686 8.85725C53.7088 8.61155 53.7335 8.35286 53.8388 8.12294C53.944 7.89301 54.1237 7.70525 54.3488 7.58995L60.3338 4.46245C60.4655 4.39025 60.6104 4.34517 60.7599 4.32989C60.9094 4.31461 61.0604 4.32942 61.2041 4.37346C61.3477 4.41751 61.4811 4.48988 61.5964 4.58632C61.7116 4.68275 61.8063 4.8013 61.875 4.93495C62.0137 5.19902 62.0418 5.50735 61.9532 5.79215C61.8646 6.07694 61.6665 6.3149 61.4025 6.4537L55.4287 9.5812C55.2562 9.67446 55.0623 9.721 54.8662 9.7162ZM52.2337 5.31745C52.1256 5.3333 52.0157 5.3333 51.9075 5.31745C51.6226 5.22931 51.3844 5.03168 51.2452 4.768C51.106 4.50431 51.0771 4.19614 51.165 3.9112L52.1437 0.68245C52.2509 0.432007 52.4453 0.228951 52.6908 0.110977C52.9364 -0.0069971 53.2164 -0.0318749 53.4789 0.040962C53.7413 0.113799 53.9685 0.279403 54.1181 0.507031C54.2678 0.734659 54.3297 1.00885 54.2925 1.2787L53.3138 4.50745C53.2456 4.74113 53.1035 4.9464 52.9087 5.09245C52.714 5.2385 52.4772 5.31745 52.2337 5.31745Z"
        fill="black" />
</svg>
    