<svg width="72" height="72" viewBox="0 0 72 72" fill="none" xmlns="http://www.w3.org/2000/svg">
    <path
        d="M46.7068 29.0868C45.8719 28.9947 45.0346 29.2379 44.379 29.763C43.7235 30.2881 43.3035 31.052 43.2113 31.8866C43.1192 32.7213 43.3625 33.5584 43.8877 34.2137C44.4129 34.8691 45.177 35.289 46.0119 35.3811C46.1292 35.3941 46.2471 35.4007 46.365 35.401C47.1735 35.3979 47.9501 35.0859 48.5359 34.5289C49.1218 33.9719 49.4724 33.2121 49.5161 32.4051C49.5598 31.5981 49.2932 30.8049 48.7709 30.188C48.2486 29.571 47.5101 29.1771 46.7068 29.0868ZM47.3931 32.3474C47.3782 32.483 47.3365 32.6144 47.2706 32.7338C47.2046 32.8533 47.1157 32.9585 47.0088 33.0434C46.8793 33.1472 46.7267 33.2185 46.564 33.2512C46.4013 33.284 46.233 33.2773 46.0734 33.2317C45.9138 33.1862 45.7674 33.103 45.6465 32.9893C45.5256 32.8755 45.4337 32.7345 45.3785 32.578C45.3233 32.4215 45.3065 32.254 45.3293 32.0896C45.3521 31.9252 45.414 31.7687 45.5098 31.6332C45.6055 31.4976 45.7324 31.3869 45.8797 31.3104C46.027 31.2339 46.1905 31.1938 46.3565 31.1934C46.3952 31.1913 46.4341 31.1913 46.4728 31.1934C46.747 31.2241 46.9978 31.3622 47.1703 31.5774C47.3428 31.7927 47.423 32.0675 47.3931 32.3417V32.3474ZM69.9084 64.4582C69.6981 64.4582 69.4925 64.5205 69.3176 64.6374C69.1427 64.7542 69.0064 64.9203 68.9259 65.1145C68.8454 65.3088 68.8243 65.5226 68.8653 65.7288C68.9064 65.9351 69.0077 66.1245 69.1564 66.2732C69.3051 66.4219 69.4946 66.5232 69.7009 66.5642C69.9072 66.6052 70.1211 66.5842 70.3154 66.5037C70.5097 66.4232 70.6758 66.287 70.7927 66.1121C70.9096 65.9373 70.9719 65.7317 70.9719 65.5214C70.9719 65.2394 70.8599 64.969 70.6604 64.7696C70.461 64.5702 70.1905 64.4582 69.9084 64.4582ZM3.84851 6.83423C3.84851 6.62394 3.78613 6.41838 3.66927 6.24353C3.55241 6.06869 3.38631 5.93241 3.19198 5.85194C2.99765 5.77147 2.78381 5.75041 2.57751 5.79144C2.37121 5.83246 2.18171 5.93372 2.03297 6.08242C1.88424 6.23111 1.78295 6.42056 1.74191 6.62681C1.70088 6.83305 1.72194 7.04683 1.80243 7.24111C1.88293 7.43539 2.01924 7.60144 2.19414 7.71827C2.36903 7.8351 2.57465 7.89746 2.78499 7.89746C3.06705 7.89746 3.33756 7.78544 3.53701 7.58604C3.73646 7.38665 3.84851 7.11622 3.84851 6.83423ZM70.9436 69.8736H67.2567C67.0434 69.871 66.8328 69.8263 66.6368 69.7423C66.4407 69.6582 66.2632 69.5363 66.1144 69.3835C65.9656 69.2308 65.8483 69.0502 65.7694 68.8521C65.6905 68.654 65.6514 68.4423 65.6544 68.2291V51.8058C65.6483 51.3764 65.8128 50.9621 66.1119 50.6538C66.411 50.3456 66.8201 50.1684 67.2496 50.1614H70.9365C71.2186 50.1614 71.4891 50.0493 71.6885 49.8499C71.888 49.6506 72 49.3801 72 49.0981C72 48.8161 71.888 48.5457 71.6885 48.3463C71.4891 48.1469 71.2186 48.0349 70.9365 48.0349H67.2496C66.4063 48.0403 65.5895 48.3304 64.9319 48.8582C64.2742 49.386 63.8142 50.1205 63.6266 50.9425L58.4225 48.7381C58.3764 48.7185 58.329 48.7024 58.2807 48.6899C56.9883 48.3504 55.6277 48.37 54.3456 48.7466L41.47 52.5302C40.9074 52.6976 40.3863 52.9817 39.9409 53.364C39.4955 53.7463 39.1357 54.2181 38.885 54.7488C38.6607 55.2228 38.5261 55.7342 38.4879 56.2572L30.7399 52.8549C30.6894 52.8327 30.6372 52.8147 30.5839 52.801C29.9435 52.6328 29.2727 52.6159 28.6247 52.7517C27.9766 52.8875 27.3691 53.1723 26.8502 53.5835C26.3148 54.0068 25.8847 54.5481 25.5934 55.1653C25.3022 55.7824 25.1578 56.4586 25.1715 57.1408C25.1853 57.8231 25.3568 58.4929 25.6726 59.0978C25.9884 59.7027 26.44 60.2264 26.992 60.6277L37.5322 68.4914C39.5302 69.9867 41.9591 70.7944 44.4549 70.7936C44.8813 70.7937 45.3073 70.7705 45.7312 70.7241H45.7695L63.5273 68.1058V68.2291C63.522 69.2222 63.9109 70.1769 64.6087 70.8838C65.3065 71.5907 66.2562 71.9921 67.2496 72H70.9365C71.2186 72 71.4891 71.888 71.6885 71.6886C71.888 71.4892 72 71.2188 72 70.9368C72 70.6548 71.888 70.3844 71.6885 70.185C71.4891 69.9856 71.2186 69.8736 70.9365 69.8736H70.9436ZM63.5273 65.9566L45.4858 68.6104C43.1101 68.87 40.7244 68.2178 38.8112 66.7859L28.2626 58.9152L28.2427 58.9011C27.9573 58.6933 27.7237 58.4225 27.5601 58.1097C27.3965 57.7969 27.3074 57.4505 27.2997 57.0977C27.2921 56.7448 27.366 56.3949 27.5158 56.0752C27.6656 55.7556 27.8872 55.4749 28.1633 55.2549C28.4153 55.0571 28.7081 54.9177 29.0205 54.8469C29.3329 54.776 29.6572 54.7755 29.9699 54.8452L39.153 58.8713C39.5258 59.4547 40.0394 59.9351 40.6465 60.2682C41.2535 60.6014 41.9346 60.7767 42.6271 60.778C42.9321 60.7755 43.2359 60.7399 43.5332 60.6717L52.6795 58.609C52.9548 58.547 53.1941 58.3782 53.3449 58.1397C53.4957 57.9012 53.5455 57.6126 53.4835 57.3374C53.4214 57.0622 53.2526 56.8229 53.014 56.6722C52.7755 56.5214 52.4868 56.4716 52.2115 56.5336L43.0653 58.6019C42.9214 58.634 42.7745 58.6506 42.6271 58.6516C42.2284 58.6489 41.8394 58.5285 41.5089 58.3055C41.1785 58.0826 40.9212 57.767 40.7695 57.3984C40.6531 57.1223 40.5963 56.8248 40.6029 56.5253C40.6095 56.2258 40.6793 55.931 40.8078 55.6604C40.9284 55.3991 41.1036 55.1666 41.3215 54.9786C41.5394 54.7905 41.7951 54.6513 42.0713 54.5702L54.9469 50.7865C55.8337 50.5265 56.7738 50.5064 57.6709 50.7284L63.5273 53.2093V65.9566ZM42.6824 47.8676C43.2616 47.8685 43.8353 47.7551 44.3706 47.5339C44.9059 47.3128 45.3924 46.9883 45.8021 46.579L61.6385 30.7596C62.0482 30.3501 62.3733 29.8639 62.595 29.3287C62.8168 28.7936 62.9309 28.2201 62.9309 27.6408C62.9309 27.0616 62.8168 26.4881 62.595 25.9529C62.3733 25.4178 62.0482 24.9316 61.6385 24.522L45.8021 8.71259C44.998 7.91138 43.9166 7.44983 42.7817 7.42344C41.6467 7.39706 40.545 7.80785 39.7046 8.57083L35.1939 4.47387C33.7854 3.20324 32.0858 2.29866 30.245 1.83991L24.234 0.337217C21.6711 -0.295946 18.9687 -0.0322783 16.5767 1.08431L8.09973 5.05368V4.902C8.09936 4.06543 7.76687 3.26321 7.1753 2.67153C6.58373 2.07985 5.78144 1.7471 4.94464 1.74634H1.06352C0.781454 1.74634 0.510944 1.85836 0.311496 2.05776C0.112049 2.25715 0 2.52758 0 2.80957C0 3.09155 0.112049 3.36199 0.311496 3.56138C0.510944 3.76078 0.781454 3.87279 1.06352 3.87279H4.94464C5.21644 3.87467 5.47648 3.98393 5.66801 4.17674C5.85955 4.36955 5.96704 4.63026 5.96703 4.902V20.2436C5.96876 20.3794 5.9436 20.5142 5.89297 20.6403C5.84235 20.7663 5.76728 20.8811 5.67208 20.978C5.57771 21.0729 5.46547 21.1482 5.34183 21.1995C5.21819 21.2509 5.08561 21.2772 4.95173 21.2771H1.07202C0.789962 21.2771 0.519452 21.3891 0.320005 21.5885C0.120557 21.7879 0.00850812 22.0583 0.00850812 22.3403C0.00850812 22.6223 0.120557 22.8927 0.320005 23.0921C0.519452 23.2915 0.789962 23.4035 1.07202 23.4035H4.95315C5.75832 23.4039 6.53292 23.0953 7.11711 22.5413C7.7013 21.9874 8.0505 21.2304 8.09264 20.4265L12.419 21.6102C12.4884 21.6298 12.5597 21.6417 12.6317 21.6457L20.4635 22.1518L24.9075 23.3567L23.7306 24.5305C23.3209 24.9401 22.9958 25.4263 22.7741 25.9614C22.5524 26.4966 22.4382 27.0701 22.4382 27.6493C22.4382 28.2286 22.5524 28.8021 22.7741 29.3372C22.9958 29.8724 23.3209 30.3586 23.7306 30.7681L39.5628 46.579C39.9725 46.9883 40.4589 47.3128 40.9942 47.5339C41.5295 47.7551 42.1032 47.8685 42.6824 47.8676ZM20.913 20.0664C20.8444 20.048 20.774 20.0366 20.7031 20.0324L12.8728 19.5263L8.0969 18.2192V7.40554L17.4757 3.01087C19.427 2.10162 21.6312 1.88848 23.7206 2.40696L29.7316 3.90256C31.232 4.27635 32.6171 5.014 33.7645 6.05028L38.2015 10.0707L35.4831 12.7855L32.6315 10.3145C32.2974 10.0256 31.8933 9.82937 31.4596 9.7453C31.026 9.66122 30.5778 9.69228 30.1599 9.83536L25.7399 11.3551C25.2798 11.5136 24.8753 11.8017 24.5753 12.1848C24.2753 12.5679 24.0926 13.0296 24.0491 13.5142C24.0056 13.9988 24.1033 14.4857 24.3303 14.916C24.5574 15.3464 24.9041 15.7019 25.3287 15.9397L26.473 16.579L31.5013 19.3916C31.8374 19.579 32.1016 19.8726 32.2525 20.2265C32.4035 20.5803 32.4325 20.9742 32.3351 21.3463C32.2377 21.7185 32.0194 22.0477 31.7145 22.2823C31.4095 22.5168 31.0353 22.6435 30.6505 22.6423C30.4967 22.6426 30.3436 22.6221 30.1953 22.5813L20.913 20.0664ZM33.9744 14.2924L31.3765 16.8853L26.3667 14.084C26.3002 14.0466 26.2459 13.9908 26.2104 13.9233C26.1749 13.8558 26.1597 13.7795 26.1666 13.7035C26.1735 13.6276 26.2022 13.5552 26.2493 13.4952C26.2964 13.4352 26.3598 13.3901 26.4319 13.3653L30.8505 11.8456C30.9163 11.8235 30.9867 11.819 31.0549 11.8324C31.123 11.8458 31.1865 11.8767 31.239 11.9221L33.9744 14.2924ZM24.5601 27.6408C24.5595 27.3411 24.6183 27.0441 24.7332 26.7672C24.8481 26.4903 25.0168 26.2389 25.2294 26.0276L27.27 23.989L29.6437 24.634C30.4832 24.8628 31.3753 24.8016 32.1756 24.4602C32.9759 24.1189 33.6375 23.5174 34.0532 22.7532C34.4688 21.989 34.6143 21.1069 34.4659 20.2498C34.3175 19.3927 33.884 18.6108 33.2356 18.0307L41.0645 10.2181C41.494 9.78995 42.0758 9.54952 42.6824 9.54952C43.289 9.54952 43.8708 9.78995 44.3004 10.2181L60.1354 26.0318C60.3476 26.2437 60.5159 26.4953 60.6308 26.7722C60.7457 27.0491 60.8048 27.346 60.8048 27.6458C60.8048 27.9456 60.7457 28.2425 60.6308 28.5194C60.5159 28.7963 60.3476 29.0479 60.1354 29.2598L44.3004 45.0777C43.8708 45.5059 43.289 45.7463 42.6824 45.7463C42.0758 45.7463 41.494 45.5059 41.0645 45.0777L25.2294 29.2598C25.0161 29.0478 24.847 28.7954 24.7321 28.5175C24.6172 28.2396 24.5588 27.9416 24.5601 27.6408ZM48.4793 23.0846C48.3031 22.8645 48.0466 22.7234 47.7663 22.6922C47.4861 22.6611 47.2049 22.7426 46.9847 22.9187L37.1337 30.8078C36.9135 30.9842 36.7724 31.2407 36.7414 31.5211C36.7104 31.8014 36.7921 32.0826 36.9685 32.3027C37.1449 32.5229 37.4015 32.6639 37.6819 32.6949C37.9624 32.7259 38.2436 32.6442 38.4638 32.4679L48.3148 24.5787C48.5335 24.4025 48.6735 24.1468 48.7044 23.8677C48.7352 23.5885 48.6543 23.3085 48.4793 23.0888V23.0846ZM38.6581 26.2034C38.7758 26.2158 38.8942 26.222 39.0126 26.2218C39.8332 26.2182 40.6201 25.8948 41.206 25.3203C41.7919 24.7458 42.1306 23.9656 42.1501 23.1454C42.1697 22.3252 41.8685 21.5297 41.3105 20.928C40.7526 20.3263 39.982 19.9659 39.1625 19.9233C38.3429 19.8807 37.5391 20.1593 36.9217 20.6998C36.3044 21.2404 35.9223 22.0004 35.8566 22.8182C35.7909 23.636 36.0469 24.4472 36.57 25.0793C37.0931 25.7114 37.8422 26.1147 38.6581 26.2034ZM37.9718 22.9428C37.9909 22.7732 38.0515 22.6109 38.1482 22.4702C38.2449 22.3296 38.3749 22.2149 38.5265 22.1364C38.6781 22.0579 38.8467 22.0179 39.0174 22.02C39.1881 22.0221 39.3557 22.0662 39.5053 22.1484C39.6549 22.2306 39.782 22.3484 39.8753 22.4914C39.9685 22.6344 40.0251 22.7981 40.0401 22.9681C40.055 23.1382 40.0278 23.3093 39.9609 23.4663C39.894 23.6234 39.7894 23.7615 39.6564 23.8685C39.4957 23.9969 39.3006 24.0748 39.0957 24.0925C38.8908 24.1101 38.6853 24.0667 38.5051 23.9676C38.3248 23.8686 38.178 23.7184 38.0831 23.536C37.9882 23.3536 37.9494 23.1472 37.9718 22.9428Z"
        fill="#2C2A2D" />
</svg>
    