<svg width="72" height="72" viewBox="0 0 72 72" fill="none" xmlns="http://www.w3.org/2000/svg">
    <path
        d="M47.7258 33.6343C40.0115 33.6343 33.7372 39.9086 33.7372 47.6228C33.7372 55.3371 40.0115 61.6114 47.7258 61.6114C55.44 61.7143 61.7143 55.44 61.7143 47.7257C61.7143 39.9086 55.44 33.6343 47.7258 33.6343ZM47.7258 59.6571C41.1429 59.6571 35.7943 54.3086 35.7943 47.7257C35.7943 41.1428 41.1429 35.7943 47.7258 35.7943C54.3086 35.7943 59.6572 41.1428 59.6572 47.7257C59.6572 54.3086 54.3086 59.6571 47.7258 59.6571Z"
        fill="black" />
    <path
        d="M47.7258 42.6856C48.8572 42.6856 49.7829 43.6113 49.7829 44.6399C49.7829 45.257 50.1943 45.6685 50.8115 45.6685C51.4286 45.6685 51.8401 45.257 51.8401 44.6399C51.8401 42.7885 50.5029 41.1427 48.7543 40.7313V40.1142C48.7543 39.497 48.3429 39.0856 47.7258 39.0856C47.1086 39.0856 46.6972 39.497 46.6972 40.1142V40.7313C44.9486 41.1427 43.7143 42.7885 43.7143 44.6399C43.7143 46.9027 45.5658 48.7542 47.7258 48.7542C48.8572 48.7542 49.7829 49.6799 49.7829 50.7085C49.7829 51.8399 48.8572 52.7656 47.7258 52.7656C46.5943 52.7656 45.7715 51.8399 45.7715 50.7085C45.7715 50.0913 45.3601 49.6799 44.7429 49.6799C44.1258 49.6799 43.7143 50.0913 43.7143 50.7085C43.7143 52.5599 45.0515 54.2056 46.6972 54.617V55.2342C46.6972 55.8513 47.1086 56.2627 47.7258 56.2627C48.3429 56.2627 48.7543 55.8513 48.7543 55.2342V54.617C50.5029 54.2056 51.8401 52.5599 51.8401 50.7085C51.8401 48.4456 49.9886 46.697 47.7258 46.697C46.5943 46.697 45.7715 45.7713 45.7715 44.6399C45.6686 43.5085 46.5943 42.6856 47.7258 42.6856ZM24.2743 38.3656C31.9886 38.3656 38.2629 32.0913 38.2629 24.377C38.2629 16.6627 31.9886 10.3885 24.2743 10.3885C16.5601 10.2856 10.2858 16.5599 10.2858 24.2742C10.2858 32.0913 16.5601 38.3656 24.2743 38.3656ZM24.2743 12.3427C30.8572 12.3427 36.2058 17.6913 36.2058 24.2742C36.2058 30.857 30.8572 36.2056 24.2743 36.2056C17.6915 36.2056 12.3429 30.857 12.3429 24.2742C12.3429 17.6913 17.6915 12.3427 24.2743 12.3427Z"
        fill="black" />
    <path
        d="M24.2743 29.3144C23.1429 29.3144 22.32 28.3887 22.32 27.2573C22.32 26.6401 21.9086 26.2287 21.2914 26.2287C20.6743 26.2287 20.2629 26.6401 20.2629 27.2573C20.2629 29.1087 21.6 30.7544 23.2457 31.1659V31.8859C23.2457 32.503 23.6572 32.9144 24.2743 32.9144C24.8914 32.9144 25.3029 32.503 25.3029 31.8859V31.2687C27.0514 30.8573 28.3886 29.2116 28.3886 27.3601C28.3886 25.0973 26.5372 23.3487 24.2743 23.3487C23.1429 23.3487 22.32 22.423 22.32 21.2916C22.32 20.1601 23.2457 19.3373 24.2743 19.3373C25.4057 19.3373 26.3314 20.263 26.3314 21.2916C26.3314 21.9087 26.7429 22.3201 27.36 22.3201C27.9772 22.3201 28.3886 21.9087 28.3886 21.2916C28.3886 19.4401 27.0514 17.7944 25.3029 17.383V16.7659C25.3029 16.1487 24.8914 15.7373 24.2743 15.7373C23.6572 15.7373 23.2457 16.1487 23.2457 16.7659V17.383C21.4972 17.7944 20.2629 19.4401 20.2629 21.2916C20.2629 23.5544 22.1143 25.4059 24.2743 25.4059C25.4057 25.4059 26.3314 26.3316 26.3314 27.3601C26.3314 28.4916 25.4057 29.3144 24.2743 29.3144ZM52.8686 15.4287H44.8457C44.2286 15.4287 43.8172 15.8401 43.8172 16.4573C43.8172 17.0744 44.2286 17.4859 44.8457 17.4859H52.8686C53.7943 17.4859 54.5143 18.2059 54.5143 19.1316V24.6859L52.8686 23.0401C52.4572 22.6287 51.84 22.6287 51.4286 23.0401C51.0172 23.4516 51.0172 24.0687 51.4286 24.4801L54.8229 27.7716C54.9257 27.8744 55.0286 27.9773 55.1314 27.9773C55.2343 28.0801 55.44 28.0801 55.5429 28.0801C55.6457 28.0801 55.8514 28.0801 55.9543 27.9773C56.0572 27.8744 56.16 27.8744 56.2629 27.7716L59.6572 24.4801C60.0686 24.0687 60.0686 23.4516 59.6572 23.0401C59.2457 22.6287 58.6286 22.6287 58.2172 23.0401L56.5714 24.6859V19.1316C56.5714 17.0744 54.9257 15.4287 52.8686 15.4287ZM27.1543 54.5144H19.1314C18.2057 54.5144 17.4857 53.7944 17.4857 52.8687V47.3144L19.1314 48.9601C19.3372 49.1659 19.6457 49.2687 19.8514 49.2687C20.16 49.2687 20.3657 49.1659 20.5714 48.9601C20.9829 48.5487 20.9829 47.9316 20.5714 47.5201L17.1772 44.2287C17.0743 44.1259 16.9714 44.023 16.8686 44.023C16.7657 44.023 16.6629 43.9201 16.56 43.9201C16.56 43.9201 16.56 43.9201 16.4572 43.9201C16.4572 43.9201 16.4572 43.9201 16.3543 43.9201C16.2514 43.9201 16.1486 43.9201 16.0457 44.023C15.9429 44.1259 15.84 44.1259 15.7372 44.2287L12.3429 47.4173C11.9314 47.8287 11.9314 48.4459 12.3429 48.8573C12.7543 49.2687 13.3714 49.2687 13.7829 48.8573L15.4286 47.3144V52.8687C15.4286 54.9259 17.0743 56.5716 19.1314 56.5716H27.1543C27.7714 56.5716 28.1829 56.1601 28.1829 55.543C28.1829 54.9258 27.7714 54.5144 27.1543 54.5144Z"
        fill="black" />
</svg>
    